<svg width="461" height="398" viewBox="0 0 461 398" fill="none" xmlns="http://www.w3.org/2000/svg">
<path d="M0.133203 212.858C0.133203 212.858 2.61808 288.443 67.034 338.825C131.45 389.208 220.736 392.817 293.01 397.612C365.284 402.407 420.791 362.321 429.148 301.746C437.505 241.17 382.36 223.395 352.339 154.425C322.319 85.4558 325.016 62.8128 261.652 20.4077C198.287 -21.9974 99.0721 4.03647 47.0806 76.6982C-4.91091 149.36 0.133203 212.858 0.133203 212.858Z" fill="#FF7324"/>
<path opacity="0.7" d="M0.133203 212.858C0.133203 212.858 2.61809 288.443 67.034 338.825C131.45 389.208 220.736 392.817 293.01 397.612C365.284 402.407 420.791 362.321 429.148 301.746C437.505 241.17 382.36 223.395 352.339 154.425C322.319 85.4558 325.016 62.8128 261.652 20.4077C198.287 -21.9974 99.0721 4.03646 47.0806 76.6982C-4.91091 149.36 0.133203 212.858 0.133203 212.858Z" fill="white"/>
<path d="M58.67 343.53H49.49" stroke="#263238" stroke-width="1.1133" stroke-miterlimit="10"/>
<path d="M430.51 343.53H73.19" stroke="#263238" stroke-width="1.1133" stroke-miterlimit="10"/>
<path d="M296.07 381.91C312.854 381.91 326.46 378.167 326.46 373.55C326.46 368.933 312.854 365.19 296.07 365.19C279.286 365.19 265.68 368.933 265.68 373.55C265.68 378.167 279.286 381.91 296.07 381.91Z" fill="#263238"/>
<path d="M139 392.54C107.37 392.54 102.7 387.97 102.24 384.28C102.136 383.512 102.211 382.729 102.461 381.995C102.711 381.261 103.128 380.595 103.68 380.05C112.2 371.11 161.3 374.89 229.24 380.12C238.72 380.85 248.52 381.6 258.57 382.35C327.22 387.45 354.86 386.79 360.57 379.89C361.73 378.48 361.97 376.72 361.33 374.34C358.61 364.39 322.25 364.34 308.48 365.12C308.165 365.136 307.856 365.028 307.62 364.819C307.384 364.609 307.241 364.315 307.22 364C307.211 363.844 307.232 363.688 307.283 363.541C307.335 363.393 307.415 363.257 307.519 363.141C307.623 363.025 307.749 362.93 307.89 362.863C308.031 362.796 308.184 362.758 308.34 362.75C313.61 362.44 359.91 360.11 363.62 373.75C364.47 376.89 364.08 379.4 362.4 381.44C355.99 389.22 329.75 390.05 258.4 384.75C248.34 384 238.54 383.25 229.06 382.52C164.3 377.52 113.14 373.59 105.4 381.72C105.094 382.01 104.862 382.37 104.723 382.768C104.583 383.166 104.541 383.592 104.6 384.01C104.89 386.37 110.6 391.65 156.6 389.81C182.33 388.81 208.18 385.98 208.44 385.95C208.741 385.938 209.036 386.04 209.264 386.237C209.492 386.433 209.638 386.709 209.671 387.009C209.704 387.308 209.622 387.609 209.442 387.851C209.262 388.092 208.997 388.256 208.7 388.31C208.44 388.31 182.51 391.15 156.7 392.18C150.06 392.42 144.18 392.54 139 392.54Z" fill="white" stroke="#263238" stroke-width="1.1133" stroke-miterlimit="10"/>
<path d="M284.77 380.89C304.547 380.89 320.58 364.857 320.58 345.08C320.58 325.303 304.547 309.27 284.77 309.27C264.993 309.27 248.96 325.303 248.96 345.08C248.96 364.857 264.993 380.89 284.77 380.89Z" fill="white"/>
<path d="M284.77 380.89C291.287 380.894 297.681 379.12 303.264 375.757C308.846 372.395 313.405 367.573 316.449 361.811C319.492 356.048 320.905 349.565 320.536 343.058C320.166 336.552 318.027 330.27 314.35 324.89C313.96 340.49 305.35 363.52 260.57 371.44C267.162 377.52 275.802 380.894 284.77 380.89V380.89Z" fill="#FF7324"/>
<path opacity="0.3" d="M284.77 380.89C291.287 380.894 297.681 379.12 303.264 375.757C308.846 372.395 313.405 367.573 316.449 361.811C319.492 356.048 320.905 349.565 320.536 343.058C320.166 336.552 318.027 330.27 314.35 324.89C313.96 340.49 305.35 363.52 260.57 371.44C267.162 377.52 275.802 380.894 284.77 380.89V380.89Z" fill="white"/>
<path d="M302.39 359.12C296.004 352.908 288.25 348.28 279.75 345.61C288.25 348.28 296.004 352.908 302.39 359.12H304.29C308.505 354.942 312.134 350.212 315.08 345.06C298.31 327.34 282 329.15 282 329.15C282 329.15 298.36 327.34 315.13 345.08C316.05 343.43 316.82 341.88 317.45 340.45C310.47 330.67 298.45 324 292 323L290.5 322.64C288.188 322.22 285.823 322.186 283.5 322.54C285.823 322.186 288.188 322.22 290.5 322.64L294.77 310.64C292.752 310.063 290.688 309.665 288.6 309.45C285.83 313.92 278.7 328.2 278.7 356.53C278.7 328.2 285.83 313.92 288.6 309.45C287.4 309.34 286.2 309.27 284.97 309.27C283.617 309.274 282.264 309.354 280.92 309.51C276.7 315.89 268.63 330.96 268.09 353.58C276.46 356.63 287.66 358.91 302.39 359.12ZM310.48 351.83C296.22 337.93 280.48 337.2 280.48 337.2C280.48 337.2 296.22 337.93 310.48 351.83V351.83Z" stroke="#263238" stroke-width="1.1133" stroke-linecap="round" stroke-linejoin="round"/>
<path d="M268.05 353.64C268.59 331.02 276.66 315.95 280.88 309.57C277.578 309.941 274.344 310.768 271.27 312.03C263.691 323.149 259.41 336.183 258.92 349.63C261.857 351.198 264.909 352.538 268.05 353.64Z" stroke="#263238" stroke-width="1.1133" stroke-linecap="round" stroke-linejoin="round"/>
<path d="M271.27 312C265.086 314.55 259.738 318.777 255.829 324.205C251.92 329.634 249.607 336.047 249.15 342.72C252.094 345.427 255.379 347.74 258.92 349.6C259.41 336.153 263.691 323.119 271.27 312V312Z" stroke="#263238" stroke-width="1.1133" stroke-linecap="round" stroke-linejoin="round"/>
<path d="M317.4 340.45C318.179 338.728 318.847 336.958 319.4 335.15C317.905 330.05 315.299 325.344 311.77 321.37L309 330.61L311.72 321.37C309.511 318.892 306.971 316.732 304.17 314.95L301.12 326.36L304.19 315C301.262 313.127 298.075 311.695 294.73 310.75L290.46 322.75C297 323.69 307.11 327.54 317.4 340.45Z" stroke="#263238" stroke-width="1.1133" stroke-linecap="round" stroke-linejoin="round"/>
<path d="M320.77 346.77C320.77 346.25 320.77 345.77 320.77 345.21C320.77 341.805 320.285 338.418 319.33 335.15C318.777 336.958 318.109 338.728 317.33 340.45C316.901 341.507 316.393 342.53 315.81 343.51C315.87 343.57 314.95 345.02 315.01 345.08C315.07 345.14 314.01 346.88 314.01 346.82C311.63 351.05 304.45 359.15 304.57 359.15C304.45 359.15 300.69 362.56 298.64 364.28C294.89 367.386 290.916 370.21 286.75 372.73H287.01H286.75C282.653 375.206 278.416 377.443 274.06 379.43C277.558 380.531 281.203 381.09 284.87 381.09C285.48 381.09 286.08 381.09 286.67 381.09C294 377.1 305.65 368 320.77 346.77Z" stroke="#263238" stroke-width="1.1133" stroke-linecap="round" stroke-linejoin="round"/>
<path d="M320.77 346.77C305.65 368 294 377.1 286.73 381C295.645 380.551 304.073 376.795 310.367 370.466C316.662 364.136 320.371 355.688 320.77 346.77V346.77Z" stroke="#263238" stroke-width="1.1133" stroke-linecap="round" stroke-linejoin="round"/>
<path d="M256.89 367.57C261.327 373.148 267.326 377.277 274.12 379.43C278.476 377.443 282.713 375.206 286.81 372.73C278.27 374.31 264.91 370.39 256.89 367.57Z" stroke="#263238" stroke-width="1.1133" stroke-linecap="round" stroke-linejoin="round"/>
<path d="M286.81 372.73C290.976 370.21 294.95 367.386 298.7 364.28C272.91 366.92 257 358.93 250.24 354.39C251.516 359.198 253.781 363.687 256.89 367.57C264.91 370.39 278.27 374.31 286.81 372.73Z" stroke="#263238" stroke-width="1.1133" stroke-linecap="round" stroke-linejoin="round"/>
<path d="M298.7 364.28C300.75 362.56 302.6 360.84 304.29 359.14H302.39C302.53 359.27 302.67 359.4 302.8 359.54C302.67 359.4 302.53 359.27 302.39 359.14C287.66 358.93 276.46 356.65 268.05 353.66C255.76 349.4 251.33 344.82 249.15 342.77C249.09 343.59 249.05 344.4 249.05 345.23C249.051 348.328 249.451 351.414 250.24 354.41C257 358.93 272.91 366.92 298.7 364.28Z" stroke="#263238" stroke-width="1.1133" stroke-linecap="round" stroke-linejoin="round"/>
<path d="M284.77 380.89C304.547 380.89 320.58 364.857 320.58 345.08C320.58 325.303 304.547 309.27 284.77 309.27C264.993 309.27 248.96 325.303 248.96 345.08C248.96 364.857 264.993 380.89 284.77 380.89Z" stroke="#263238" stroke-width="1.1133" stroke-linecap="round" stroke-linejoin="round"/>
<path d="M350.73 283.88C350.73 283.88 348.28 275.93 341.14 273.07C336.14 271.07 330.47 271.61 325.32 272.5C315.74 274.17 307.38 277.98 298.32 281.23C298.32 281.23 302.2 279.8 318.11 287.56C323.97 290.41 330.67 292.63 337.37 292.48C342.74 292.36 351 290.82 350.73 283.88Z" fill="#FF7324"/>
<path d="M351.59 260.51C351.59 260.51 351.59 252.18 345.59 247.39C341.41 244.05 335.79 242.9 330.59 242.27C320.93 241.1 311.83 242.33 302.19 242.82C302.19 242.82 306.32 242.58 319.31 254.6C324.1 259.02 329.88 263.08 336.31 264.87C341.49 266.31 349.83 267.23 351.59 260.51Z" fill="#FF7324"/>
<path d="M368 291.42C368 291.42 361.51 286.21 361.49 278.52C361.49 273.17 364.06 268.06 366.79 263.61C371.87 255.31 378.49 248.95 384.87 241.7C384.87 241.7 382.11 244.78 383.45 262.43C383.95 268.93 383.53 275.98 380.92 282.15C378.87 287.11 374.4 294.22 368 291.42Z" fill="#FF7324"/>
<path d="M391 304.2C391 304.2 390.08 295.93 395.5 290.47C399.26 286.68 404.71 284.88 409.78 283.66C419.24 281.38 428.42 281.55 438.05 280.92C438.05 280.92 433.93 281.15 422.41 294.59C418.17 299.59 412.9 304.24 406.69 306.77C401.74 308.8 393.56 310.67 391 304.2Z" fill="#FF7324"/>
<path d="M389.53 274.71C389.53 274.71 381.28 273.58 377.32 266.99C374.56 262.41 374.15 256.69 374.2 251.47C374.3 241.75 376.72 232.88 378.47 223.39C378.47 223.39 377.68 227.45 387.9 241.9C391.66 247.23 394.9 253.49 395.9 260.13C396.61 265.46 396.42 273.85 389.53 274.71Z" fill="#FF7324"/>
<path d="M413.27 259.9C413.27 259.9 419.2 265.74 426.84 264.9C432.15 264.29 436.93 261.12 441.03 257.9C448.67 251.9 454.22 244.56 460.67 237.39C460.67 237.39 457.94 240.48 440.25 241.21C433.74 241.48 426.79 242.71 420.96 246.03C416.28 248.65 409.75 253.92 413.27 259.9Z" fill="#FF7324"/>
<path d="M406.4 254.13C406.4 254.13 414.68 254.96 420.08 249.49C423.84 245.68 425.58 240.22 426.75 235.13C428.93 225.66 428.67 216.47 429.19 206.84C429.19 206.84 429.01 210.96 415.68 222.62C410.78 226.91 406.13 232.23 403.68 238.46C401.69 243.47 399.9 251.67 406.4 254.13Z" fill="#FF7324"/>
<path d="M376.83 334.74L362.53 299.55L346.04 258.86" stroke="#263238" stroke-width="1.1133" stroke-linecap="round" stroke-linejoin="round"/>
<path d="M380.13 328.69L394.42 279.76L409.82 249.52" stroke="#263238" stroke-width="1.1133" stroke-linecap="round" stroke-linejoin="round"/>
<path d="M385.62 309.45L399.92 301.2" stroke="#263238" stroke-width="1.1133" stroke-linecap="round" stroke-linejoin="round"/>
<path d="M394.42 279.76L387.27 263.81" stroke="#263238" stroke-width="1.1133" stroke-linecap="round" stroke-linejoin="round"/>
<path d="M403.37 263.89L420.81 256.11" stroke="#263238" stroke-width="1.1133" stroke-linecap="round" stroke-linejoin="round"/>
<path d="M365.28 306.15L371.33 281.96" stroke="#263238" stroke-width="1.1133" stroke-linecap="round" stroke-linejoin="round"/>
<path d="M357.26 287.76L343.29 280.31" stroke="#263238" stroke-width="1.1133" stroke-linecap="round" stroke-linejoin="round"/>
<path d="M384.16 352.33H372.24C370.291 352.329 368.404 351.649 366.904 350.405C365.403 349.162 364.383 347.434 364.02 345.52L359.78 323.19H396.62L392.39 345.52C392.025 347.435 391.003 349.163 389.501 350.406C387.999 351.649 386.11 352.33 384.16 352.33V352.33Z" fill="#263238" stroke="#263238" stroke-width="1.1133" stroke-linecap="round" stroke-linejoin="round"/>
<path d="M221.15 305.28C198.89 305.28 185.51 285.53 180.76 268.16L180.6 267.55C180.347 266.708 180.266 265.823 180.363 264.949C180.46 264.075 180.732 263.229 181.163 262.463C181.594 261.696 182.175 261.024 182.872 260.488C183.568 259.951 184.366 259.56 185.217 259.339C186.068 259.117 186.955 259.07 187.825 259.199C188.695 259.329 189.53 259.632 190.28 260.091C191.03 260.551 191.679 261.157 192.19 261.873C192.7 262.589 193.061 263.401 193.25 264.26L193.37 264.71C196.98 277.93 206.81 293.04 222.58 292.17C225.545 292.067 228.456 291.342 231.123 290.041C233.79 288.741 236.153 286.894 238.06 284.62C246.71 274.7 250.58 253.13 249.72 242.25C249.639 241.552 249.699 240.844 249.897 240.17C250.095 239.496 250.427 238.868 250.873 238.325C251.319 237.782 251.87 237.334 252.494 237.009C253.117 236.683 253.799 236.487 254.5 236.431C255.2 236.375 255.905 236.461 256.572 236.684C257.238 236.906 257.853 237.261 258.38 237.727C258.906 238.193 259.334 238.76 259.636 239.394C259.938 240.029 260.11 240.718 260.14 241.42C261.14 253.53 259.82 279.56 247.91 293.21C244.862 296.799 241.103 299.719 236.871 301.784C232.639 303.849 228.025 305.016 223.32 305.21C222.59 305.26 221.86 305.28 221.15 305.28Z" fill="white"/>
<path d="M254.51 236.62C253.129 236.732 251.848 237.388 250.95 238.444C250.052 239.499 249.609 240.868 249.72 242.25C250.14 247.56 249.43 255.41 247.59 263.25C250.218 263.139 252.846 263.477 255.36 264.25C254.765 271.773 252.123 278.991 247.72 285.12C238.01 298.61 223.45 302.92 212.12 301.3C207.05 300.58 201.24 297.92 196.35 295.19C202.985 301.66 211.882 305.287 221.15 305.3C221.86 305.3 222.59 305.3 223.32 305.24C228.025 305.046 232.639 303.879 236.871 301.814C241.103 299.748 244.862 296.829 247.91 293.24C259.82 279.59 261.1 253.56 260.14 241.45C260.091 240.762 259.906 240.091 259.595 239.475C259.285 238.859 258.856 238.31 258.332 237.861C257.809 237.412 257.201 237.071 256.545 236.858C255.889 236.645 255.198 236.564 254.51 236.62V236.62Z" fill="#FF7324"/>
<path opacity="0.5" d="M254.51 236.62C253.129 236.732 251.848 237.388 250.95 238.444C250.052 239.499 249.609 240.868 249.72 242.25C250.14 247.56 249.43 255.41 247.59 263.25C250.218 263.139 252.846 263.477 255.36 264.25C254.765 271.773 252.123 278.991 247.72 285.12C238.01 298.61 223.45 302.92 212.12 301.3C207.05 300.58 201.24 297.92 196.35 295.19C202.985 301.66 211.882 305.287 221.15 305.3C221.86 305.3 222.59 305.3 223.32 305.24C228.025 305.046 232.639 303.879 236.871 301.814C241.103 299.748 244.862 296.829 247.91 293.24C259.82 279.59 261.1 253.56 260.14 241.45C260.091 240.762 259.906 240.091 259.595 239.475C259.285 238.859 258.856 238.31 258.332 237.861C257.809 237.412 257.201 237.071 256.545 236.858C255.889 236.645 255.198 236.564 254.51 236.62V236.62Z" fill="white"/>
<path d="M221.15 305.28C198.89 305.28 185.51 285.53 180.76 268.16L180.6 267.55C180.347 266.708 180.266 265.823 180.363 264.949C180.46 264.075 180.732 263.229 181.163 262.463C181.594 261.696 182.175 261.024 182.872 260.488C183.568 259.951 184.366 259.56 185.217 259.339C186.068 259.117 186.955 259.07 187.825 259.199C188.695 259.329 189.53 259.632 190.28 260.091C191.03 260.551 191.679 261.157 192.19 261.873C192.7 262.589 193.061 263.401 193.25 264.26L193.37 264.71C196.98 277.93 206.81 293.04 222.58 292.17C225.545 292.067 228.456 291.342 231.123 290.041C233.79 288.741 236.153 286.894 238.06 284.62C246.71 274.7 250.58 253.13 249.72 242.25C249.639 241.552 249.699 240.844 249.897 240.17C250.095 239.496 250.427 238.868 250.873 238.325C251.319 237.782 251.87 237.334 252.494 237.009C253.117 236.683 253.799 236.487 254.5 236.431C255.2 236.375 255.905 236.461 256.572 236.684C257.238 236.906 257.853 237.261 258.38 237.727C258.906 238.193 259.334 238.76 259.636 239.394C259.938 240.029 260.11 240.718 260.14 241.42C261.14 253.53 259.82 279.56 247.91 293.21C244.862 296.799 241.103 299.719 236.871 301.784C232.639 303.849 228.025 305.016 223.32 305.21C222.59 305.26 221.86 305.28 221.15 305.28Z" stroke="#263238" stroke-width="1.1133" stroke-linecap="round" stroke-linejoin="round"/>
<path d="M208.31 291.75C208.84 289.3 202.98 293.13 198.07 296.7C199.886 298.235 201.841 299.597 203.91 300.77C205.66 297.92 207.8 294.11 208.31 291.75Z" fill="#FF7324" stroke="#263238" stroke-width="1.1133" stroke-linecap="round" stroke-linejoin="round"/>
<path d="M221.15 305.28C221.86 305.28 222.59 305.28 223.32 305.22C225.445 305.101 227.555 304.803 229.63 304.33C226.87 300.73 223.07 295.97 221.98 295.61C220.73 295.19 218.32 301.32 216.98 305.04C218.364 305.201 219.756 305.282 221.15 305.28V305.28Z" fill="#FF7324" stroke="#263238" stroke-width="1.1133" stroke-linecap="round" stroke-linejoin="round"/>
<path d="M193.37 264.71L193.25 264.26C193.061 263.401 192.7 262.589 192.19 261.873C191.679 261.157 191.03 260.551 190.28 260.091C189.53 259.632 188.695 259.329 187.825 259.199C186.955 259.07 186.068 259.117 185.217 259.339C184.366 259.56 183.568 259.951 182.872 260.488C182.175 261.024 181.594 261.696 181.163 262.463C180.732 263.229 180.46 264.075 180.363 264.949C180.266 265.823 180.347 266.708 180.6 267.55L180.76 268.16C182.427 274.26 184.989 280.08 188.36 285.43L200.27 279.76C197.147 275.163 194.815 270.076 193.37 264.71Z" fill="#FF7324" stroke="#263238" stroke-width="1.1133" stroke-linecap="round" stroke-linejoin="round"/>
<path d="M247.91 293.21C248.825 292.15 249.673 291.035 250.45 289.87C246.67 288.58 241.01 286.8 238.91 286.99C236.42 287.22 239.8 295.22 241.54 298.99C243.882 297.319 246.02 295.379 247.91 293.21V293.21Z" fill="#FF7324" stroke="#263238" stroke-width="1.1133" stroke-linecap="round" stroke-linejoin="round"/>
<path d="M248.12 271.84C247.72 272.64 252.61 276.2 255.91 278.49C256.957 275.375 257.799 272.195 258.43 268.97C254.43 269.77 248.51 271.06 248.12 271.84Z" fill="#FF7324" stroke="#263238" stroke-width="1.1133" stroke-linecap="round" stroke-linejoin="round"/>
<path d="M260.05 257.05C260.27 254.2 260.38 251.48 260.39 248.98C256.95 250.87 252.87 253.49 252.87 255.21C252.87 256.93 256.69 257.14 260.05 257.05Z" fill="#FF7324" stroke="#263238" stroke-width="1.1133" stroke-linecap="round" stroke-linejoin="round"/>
<path d="M206.21 179.68C206.21 179.68 196.5 207.8 201.73 229.68C203.279 236.083 206.286 242.041 210.517 247.091C214.748 252.14 220.087 256.144 226.12 258.79C226.12 258.79 211.93 263.79 215.12 271.48C218.31 279.17 230.54 274.22 234.53 271.73C238.52 269.24 243.53 261.78 244.23 256.8C244.675 254.256 244.842 251.671 244.73 249.09C244.73 249.09 260.9 247.35 271.85 238.39C271.85 238.39 281.56 246.1 288.53 244.61C295.5 243.12 305.45 230.67 304.45 219.48C303.45 208.29 297 208.3 293.06 210C291.015 210.773 289.15 211.958 287.58 213.48C287.58 213.48 293.3 206.48 287.58 196.81C285.892 193.974 283.58 191.559 280.82 189.748C278.06 187.937 274.924 186.779 271.65 186.36C271.65 186.36 268.65 170.43 259.71 164.46C250.77 158.49 218.9 152.31 206.21 179.68Z" fill="white"/>
<path d="M280.14 189.35C275.524 197.051 269.135 203.538 261.507 208.272C253.878 213.007 245.23 215.852 236.28 216.57C216.48 218.31 205.38 214.41 200.28 211.7C200.899 200.82 202.915 190.065 206.28 179.7C218.97 152.33 250.82 158.55 259.78 164.52C268.74 170.49 271.72 186.42 271.72 186.42C274.701 186.794 277.57 187.793 280.14 189.35ZM293.06 210C291.015 210.773 289.15 211.958 287.58 213.48C288.791 211.81 289.59 209.878 289.91 207.84C276.46 214.54 277.51 228.84 275.84 228.84C273.78 228.84 272.76 221.65 272.76 221.65C272.76 221.65 270.19 231.92 254.76 239.12C239.33 246.32 221.88 240.66 221.88 240.66C221.88 240.66 225.48 248.88 216.23 247.85C213.634 247.602 211.145 246.693 209 245.21C213.436 251.124 219.327 255.788 226.1 258.75C226.1 258.75 211.91 263.75 215.1 271.44C218.29 279.13 230.53 274.18 234.51 271.69C238.49 269.2 243.51 261.74 244.21 256.76C244.655 254.216 244.823 251.631 244.71 249.05C244.71 249.05 260.88 247.31 271.83 238.35C271.83 238.35 281.54 246.06 288.51 244.57C295.48 243.08 305.43 230.63 304.43 219.44C303.43 208.25 297 208.3 293.06 210Z" fill="#FF7324"/>
<path opacity="0.5" d="M280.14 189.35C275.524 197.051 269.135 203.538 261.507 208.272C253.878 213.007 245.23 215.852 236.28 216.57C216.48 218.31 205.38 214.41 200.28 211.7C200.899 200.82 202.915 190.065 206.28 179.7C218.97 152.33 250.82 158.55 259.78 164.52C268.74 170.49 271.72 186.42 271.72 186.42C274.701 186.794 277.57 187.793 280.14 189.35ZM293.06 210C291.015 210.773 289.15 211.958 287.58 213.48C288.791 211.81 289.59 209.878 289.91 207.84C276.46 214.54 277.51 228.84 275.84 228.84C273.78 228.84 272.76 221.65 272.76 221.65C272.76 221.65 270.19 231.92 254.76 239.12C239.33 246.32 221.88 240.66 221.88 240.66C221.88 240.66 225.48 248.88 216.23 247.85C213.634 247.602 211.145 246.693 209 245.21C213.436 251.124 219.327 255.788 226.1 258.75C226.1 258.75 211.91 263.75 215.1 271.44C218.29 279.13 230.53 274.18 234.51 271.69C238.49 269.2 243.51 261.74 244.21 256.76C244.655 254.216 244.823 251.631 244.71 249.05C244.71 249.05 260.88 247.31 271.83 238.35C271.83 238.35 281.54 246.06 288.51 244.57C295.48 243.08 305.43 230.63 304.43 219.44C303.43 208.25 297 208.3 293.06 210Z" fill="white"/>
<path d="M244.78 249.11C239.413 249.253 234.085 248.163 229.205 245.925C224.325 243.687 220.023 240.36 216.63 236.2" stroke="#263238" stroke-width="1.1133" stroke-linecap="round" stroke-linejoin="round"/>
<path d="M206.21 179.68C206.21 179.68 196.5 207.8 201.73 229.68C203.279 236.083 206.286 242.041 210.517 247.091C214.748 252.14 220.087 256.144 226.12 258.79C226.12 258.79 211.93 263.79 215.12 271.48C218.31 279.17 230.54 274.22 234.53 271.73C238.52 269.24 243.53 261.78 244.23 256.8C244.675 254.256 244.842 251.671 244.73 249.09C244.73 249.09 260.9 247.35 271.85 238.39C271.85 238.39 281.56 246.1 288.53 244.61C295.5 243.12 305.45 230.67 304.45 219.48C303.45 208.29 297 208.3 293.06 210C291.015 210.773 289.15 211.958 287.58 213.48C287.58 213.48 293.3 206.48 287.58 196.81C285.892 193.974 283.58 191.559 280.82 189.748C278.06 187.937 274.924 186.779 271.65 186.36C271.65 186.36 268.65 170.43 259.71 164.46C250.77 158.49 218.9 152.31 206.21 179.68Z" stroke="#263238" stroke-width="1.1133" stroke-linecap="round" stroke-linejoin="round"/>
<path d="M287.58 213.52C287.58 213.52 282.36 217.01 279.87 227.71" stroke="#263238" stroke-width="1.1133" stroke-linecap="round" stroke-linejoin="round"/>
<path d="M297.17 218.1C296.56 219.92 294.89 221.01 293.45 220.52C292.01 220.03 291.35 218.16 291.96 216.34C292.57 214.52 294.24 213.43 295.68 213.92C297.12 214.41 297.79 216.28 297.17 218.1Z" fill="white" stroke="#263238" stroke-width="1.1133" stroke-linecap="round" stroke-linejoin="round"/>
<path d="M302.32 221.34C301.71 223.16 300.04 224.25 298.6 223.76C297.16 223.27 296.49 221.4 297.11 219.58C297.73 217.76 299.39 216.67 300.83 217.16C302.27 217.65 302.94 219.52 302.32 221.34Z" fill="white" stroke="#263238" stroke-width="1.1133" stroke-linecap="round" stroke-linejoin="round"/>
<path d="M303.42 226.19C303.22 226.525 302.93 226.796 302.582 226.972C302.235 227.148 301.844 227.222 301.456 227.186C301.068 227.149 300.699 227.003 300.39 226.764C300.082 226.526 299.848 226.205 299.715 225.838C299.582 225.472 299.555 225.075 299.638 224.695C299.722 224.314 299.911 223.965 300.185 223.687C300.459 223.41 300.806 223.216 301.186 223.128C301.565 223.04 301.962 223.062 302.33 223.19C302.861 223.456 303.27 223.915 303.473 224.473C303.676 225.031 303.657 225.645 303.42 226.19V226.19Z" fill="white" stroke="#263238" stroke-width="1.1133" stroke-linecap="round" stroke-linejoin="round"/>
<path d="M296.85 232.85C295.05 236.1 291.45 237.54 288.8 236.07C286.15 234.6 285.47 230.79 287.27 227.54C289.07 224.29 292.67 222.85 295.32 224.32C297.97 225.79 298.65 229.6 296.85 232.85Z" fill="white" stroke="#263238" stroke-width="1.1133" stroke-linecap="round" stroke-linejoin="round"/>
<path d="M226.12 258.81C229.472 260.37 233.283 260.637 236.82 259.56" stroke="#263238" stroke-width="1.1133" stroke-linecap="round" stroke-linejoin="round"/>
<path d="M215.17 271.5C215.17 271.5 216.17 267.27 222.38 264.29" stroke="#263238" stroke-width="1.1133" stroke-linecap="round" stroke-linejoin="round"/>
<path d="M221.39 275.24C221.39 275.24 223.88 269.24 228.11 266.53" stroke="#263238" stroke-width="1.1133" stroke-linecap="round" stroke-linejoin="round"/>
<path d="M123.26 206.4C122.202 205.556 121.359 204.474 120.799 203.241C120.24 202.009 119.98 200.662 120.04 199.31V175.6H58.88C57.386 175.656 55.8976 175.388 54.5168 174.815C53.1359 174.242 51.8953 173.377 50.88 172.28C48.8796 170.164 47.782 167.352 47.82 164.44C47.8119 162.074 48.5081 159.759 49.82 157.79L108.4 65.7301C112.8 58.9367 118.647 55.5401 125.94 55.5401C129.861 55.4068 133.69 56.7485 136.67 59.3001C139.53 61.8001 140.96 65.5167 140.96 70.4501V159.94H156.52C157.595 159.875 158.671 160.048 159.671 160.445C160.672 160.843 161.573 161.455 162.31 162.24C163.626 163.782 164.349 165.743 164.349 167.77C164.349 169.797 163.626 171.758 162.31 173.3C161.573 174.085 160.672 174.697 159.671 175.095C158.671 175.492 157.595 175.665 156.52 175.6H140.85V199.31C140.915 200.652 140.668 201.99 140.128 203.221C139.589 204.451 138.771 205.539 137.74 206.4C135.727 208.088 133.177 208.999 130.55 208.97C127.894 208.991 125.315 208.082 123.26 206.4ZM120 159.94V77.5401L68.71 159.94H120Z" fill="#263238"/>
<path d="M208.13 206.88C202.136 204.264 196.827 200.297 192.62 195.29C188.394 190 185.094 184.032 182.86 177.64C180.328 170.735 178.548 163.577 177.55 156.29C176.509 148.356 176.008 140.361 176.05 132.36C176.05 79.6467 194.05 53.29 230.05 53.29C266.05 53.29 284.007 79.6467 283.92 132.36C283.956 140.323 283.471 148.28 282.47 156.18C281.505 163.468 279.741 170.628 277.21 177.53C274.976 183.922 271.676 189.89 267.45 195.18C263.237 200.194 257.931 204.176 251.94 206.82C245.052 209.865 237.58 211.367 230.05 211.22C222.516 211.371 215.038 209.891 208.13 206.88V206.88ZM240.69 191.75C243.702 190.465 246.436 188.607 248.74 186.28C251.073 183.796 252.991 180.953 254.42 177.86C255.997 174.583 257.273 171.169 258.23 167.66C259.238 163.837 259.974 159.947 260.43 156.02C260.97 151.687 261.33 147.717 261.51 144.11C261.69 140.503 261.777 136.587 261.77 132.36C261.77 127.927 261.683 123.833 261.51 120.08C261.337 116.327 260.96 112.3 260.38 108C259.882 104.076 259.131 100.187 258.13 96.36C257.184 92.8865 255.908 89.5112 254.32 86.28C252.88 83.2357 250.958 80.4433 248.63 78.01C246.34 75.7295 243.621 73.9248 240.63 72.7C233.793 70.0603 226.217 70.0603 219.38 72.7C216.411 73.9101 213.712 75.6981 211.44 77.96C209.129 80.3827 207.212 83.1531 205.76 86.17C204.158 89.3721 202.898 92.734 202 96.2C201.024 100.05 200.289 103.958 199.8 107.9C199.22 112.26 198.843 116.32 198.67 120.08C198.497 123.84 198.407 127.933 198.4 132.36C198.4 136.58 198.49 140.513 198.67 144.16C198.85 147.807 199.207 151.807 199.74 156.16C200.201 160.087 200.936 163.976 201.94 167.8C202.884 171.308 204.146 174.722 205.71 178C207.125 181.074 209.026 183.901 211.34 186.37C213.627 188.682 216.345 190.524 219.34 191.79C226.184 194.576 233.846 194.576 240.69 191.79V191.75Z" fill="#263238"/>
<path d="M376.58 206.4C375.522 205.556 374.679 204.474 374.119 203.241C373.56 202.009 373.3 200.662 373.36 199.31V175.6H312.2C310.706 175.656 309.218 175.388 307.837 174.815C306.456 174.242 305.215 173.377 304.2 172.28C302.2 170.164 301.102 167.352 301.14 164.44C301.132 162.074 301.828 159.759 303.14 157.79L361.72 65.73C366.08 58.9367 371.91 55.54 379.21 55.54C383.152 55.3916 387.004 56.7342 390 59.3C392.86 61.8 394.29 65.5167 394.29 70.45V159.94H409.85C410.925 159.875 412.001 160.048 413.001 160.445C414.002 160.843 414.903 161.455 415.64 162.24C416.956 163.782 417.679 165.743 417.679 167.77C417.679 169.797 416.956 171.758 415.64 173.3C414.903 174.085 414.002 174.697 413.001 175.095C412.001 175.492 410.925 175.665 409.85 175.6H394.17V199.31C394.235 200.652 393.988 201.99 393.448 203.221C392.909 204.451 392.091 205.539 391.06 206.4C389.047 208.088 386.497 208.999 383.87 208.97C381.214 208.991 378.635 208.082 376.58 206.4V206.4ZM373.36 159.94V77.54L322.07 159.94H373.36Z" fill="#263238"/>
<path d="M186.05 165.5C186.05 165.5 175.6 180.18 174.11 195.11C172.62 210.04 174.36 219.99 178.84 223.73C183.32 227.47 187.79 225.97 190.28 222.48C192.77 218.99 188.79 206.8 188.79 206.8C188.79 206.8 193.02 195.11 199.49 186.9C205.96 178.69 207.2 177.44 207.2 177.44C207.2 177.44 196 164.75 186.05 165.5Z" fill="white"/>
<path d="M186.05 165.5C183.77 168.869 181.747 172.406 180 176.08C185 178.08 192.75 182.18 197.67 189.44C198.27 188.57 198.89 187.71 199.53 186.9C206 178.69 207.24 177.44 207.24 177.44C207.24 177.44 196 164.75 186.05 165.5Z" fill="#FF7324"/>
<path opacity="0.5" d="M186.05 165.5C183.77 168.869 181.747 172.406 180 176.08C185 178.08 192.75 182.18 197.67 189.44C198.27 188.57 198.89 187.71 199.53 186.9C206 178.69 207.24 177.44 207.24 177.44C207.24 177.44 196 164.75 186.05 165.5Z" fill="white"/>
<path d="M186.05 165.5C186.05 165.5 175.6 180.18 174.11 195.11C172.62 210.04 174.36 219.99 178.84 223.73C183.32 227.47 187.79 225.97 190.28 222.48C192.77 218.99 188.79 206.8 188.79 206.8C188.79 206.8 193.02 195.11 199.49 186.9C205.96 178.69 207.2 177.44 207.2 177.44C207.2 177.44 196 164.75 186.05 165.5Z" stroke="#263238" stroke-width="1.1133" stroke-linecap="round" stroke-linejoin="round"/>
<path d="M178.84 223.73C177.618 220.467 177.024 217.003 177.09 213.52" stroke="#263238" stroke-width="1.1133" stroke-linecap="round" stroke-linejoin="round"/>
<path d="M185.55 225.22C185.55 225.22 183.07 220.99 182.82 213.77" stroke="#263238" stroke-width="1.1133" stroke-linecap="round" stroke-linejoin="round"/>
<path d="M189.29 192.12C189.29 189.5 184.29 184.38 177.34 182.12C176.406 184.556 175.634 187.052 175.03 189.59C177.73 190.052 180.352 190.89 182.82 192.08C186.55 194.11 189.29 195.11 189.29 192.12Z" fill="#FF7324" stroke="#263238" stroke-width="1.1133" stroke-linecap="round" stroke-linejoin="round"/>
<path d="M185.44 166.39C183.828 168.847 182.346 171.387 181 174C183.104 174.556 185.123 175.398 187 176.5C194.71 180.97 196.2 181.5 193.72 175C192.22 170.92 188.64 168.15 185.44 166.39Z" fill="#FF7324" stroke="#263238" stroke-width="1.1133" stroke-linecap="round" stroke-linejoin="round"/>
<path d="M267.9 158.25C267.9 158.25 279.74 171.83 282.69 186.55C285.64 201.27 284.89 211.34 280.79 215.49C276.69 219.64 272.1 218.6 269.28 215.37C266.46 212.14 269.28 199.63 269.28 199.63C269.28 199.63 263.92 188.4 256.68 180.86C249.44 173.32 248.07 172.21 248.07 172.21C248.07 172.21 257.92 158.48 267.9 158.25Z" fill="white"/>
<path d="M267.9 158.25C257.9 158.48 248.02 172.25 248.02 172.25C248.02 172.25 249.38 173.37 256.63 180.9C257.986 182.328 259.261 183.83 260.45 185.4C264.234 179.008 269.64 173.73 276.12 170.1C273.735 165.915 270.985 161.949 267.9 158.25V158.25Z" fill="#FF7324"/>
<path opacity="0.5" d="M267.9 158.25C257.9 158.48 248.02 172.25 248.02 172.25C248.02 172.25 249.38 173.37 256.63 180.9C257.986 182.328 259.261 183.83 260.45 185.4C264.234 179.008 269.64 173.73 276.12 170.1C273.735 165.915 270.985 161.949 267.9 158.25V158.25Z" fill="white"/>
<path d="M267.9 158.25C267.9 158.25 279.74 171.83 282.69 186.55C285.64 201.27 284.89 211.34 280.79 215.49C276.69 219.64 272.1 218.6 269.28 215.37C266.46 212.14 269.28 199.63 269.28 199.63C269.28 199.63 263.92 188.4 256.68 180.86C249.44 173.32 248.07 172.21 248.07 172.21C248.07 172.21 257.92 158.48 267.9 158.25Z" stroke="#263238" stroke-width="1.1133" stroke-linecap="round" stroke-linejoin="round"/>
<path d="M280.79 215.49C281.686 212.128 281.938 208.626 281.53 205.17" stroke="#263238" stroke-width="1.1133" stroke-linecap="round" stroke-linejoin="round"/>
<path d="M274.25 217.63C274.25 217.63 276.32 213.18 275.86 205.97" stroke="#263238" stroke-width="1.1133" stroke-linecap="round" stroke-linejoin="round"/>
<path d="M267.29 185.06C267.04 182.45 271.51 176.87 278.21 173.98C279.369 176.311 280.371 178.716 281.21 181.18C278.573 181.915 276.05 183.009 273.71 184.43C270.21 186.78 267.59 188 267.29 185.06Z" fill="#FF7324" stroke="#263238" stroke-width="1.1133" stroke-linecap="round" stroke-linejoin="round"/>
<path d="M268.59 159.08C270.429 161.349 272.145 163.716 273.73 166.17C271.683 166.928 269.749 167.961 267.98 169.24C260.75 174.46 259.31 175.1 261.15 168.42C262.3 164.25 265.58 161.14 268.59 159.08Z" fill="#FF7324" stroke="#263238" stroke-width="1.1133" stroke-linecap="round" stroke-linejoin="round"/>
<path d="M185.07 152.8C185.07 152.8 181.99 163.19 183.15 167.42C184.31 171.65 189.69 167.81 195.08 172.42C200.47 177.03 205.46 185.35 225.87 186.89C246.28 188.43 258.6 177.42 262.87 171.26C267.14 165.1 266.72 157.79 274.03 157.41C281.34 157.03 275.19 142.78 272.88 140.47C272.88 140.47 287.12 119.3 287.12 113.91C287.12 108.52 273.65 109.67 257.12 114.68C257.12 114.68 244.8 108.13 222.47 111.98C200.14 115.83 193.6 122.38 193.6 122.38C193.6 122.38 165.88 125.84 163.96 129.3C162.04 132.76 167.75 147.41 185.07 152.8Z" fill="white"/>
<path d="M274 157.42C281.32 157.03 275.16 142.79 272.85 140.48C272.85 140.48 275.56 136.48 278.61 131.48C270.34 127.16 262.22 124.76 260.06 127.19C255.41 132.41 257.94 142.41 260.06 152.19C262.18 161.97 253.71 166.14 247.79 174.6C241.87 183.06 233.42 173.75 233.42 173.75C230.42 186.02 217.77 177.98 217.77 177.98C208.05 174.98 191.56 165.3 194.94 158.53C198.32 151.76 199.17 145.42 193.25 139.93C187.33 134.44 163.72 129.87 163.72 129.87C162.48 134.04 168.47 147.7 185.08 152.87C185.08 152.87 182 163.26 183.16 167.49C184.32 171.72 189.7 167.88 195.09 172.49C200.48 177.1 205.47 185.42 225.88 186.96C246.29 188.5 258.61 177.49 262.88 171.33C267.15 165.17 266.68 157.8 274 157.42Z" fill="#FF7324"/>
<path opacity="0.5" d="M274 157.42C281.32 157.03 275.16 142.79 272.85 140.48C272.85 140.48 275.56 136.48 278.61 131.48C270.34 127.16 262.22 124.76 260.06 127.19C255.41 132.41 257.94 142.41 260.06 152.19C262.18 161.97 253.71 166.14 247.79 174.6C241.87 183.06 233.42 173.75 233.42 173.75C230.42 186.02 217.77 177.98 217.77 177.98C208.05 174.98 191.56 165.3 194.94 158.53C198.32 151.76 199.17 145.42 193.25 139.93C187.33 134.44 163.72 129.87 163.72 129.87C162.48 134.04 168.47 147.7 185.08 152.87C185.08 152.87 182 163.26 183.16 167.49C184.32 171.72 189.7 167.88 195.09 172.49C200.48 177.1 205.47 185.42 225.88 186.96C246.29 188.5 258.61 177.49 262.88 171.33C267.15 165.17 266.68 157.8 274 157.42Z" fill="white"/>
<path d="M243.89 159.74C244.18 162.18 238.76 164.81 231.81 165.62C224.86 166.43 218.98 165.11 218.69 162.62C218.4 160.13 223.82 157.56 230.78 156.75C237.74 155.94 243.61 157.31 243.89 159.74Z" fill="#FF7324"/>
<path opacity="0.5" d="M243.89 159.74C244.18 162.18 238.76 164.81 231.81 165.62C224.86 166.43 218.98 165.11 218.69 162.62C218.4 160.13 223.82 157.56 230.78 156.75C237.74 155.94 243.61 157.31 243.89 159.74Z" fill="white"/>
<path d="M185.07 152.8C185.07 152.8 181.99 163.19 183.15 167.42C184.31 171.65 189.69 167.81 195.08 172.42C200.47 177.03 205.46 185.35 225.87 186.89C246.28 188.43 258.6 177.42 262.87 171.26C267.14 165.1 266.72 157.79 274.03 157.41C281.34 157.03 275.19 142.78 272.88 140.47C272.88 140.47 287.12 119.3 287.12 113.91C287.12 108.52 273.65 109.67 257.12 114.68C257.12 114.68 244.8 108.13 222.47 111.98C200.14 115.83 193.6 122.38 193.6 122.38C193.6 122.38 165.88 125.84 163.96 129.3C162.04 132.76 167.75 147.41 185.07 152.8Z" stroke="#263238" stroke-width="1.1133" stroke-miterlimit="10"/>
<path d="M264.69 122C254.69 128.72 258.22 135.44 262.69 139.17C265.42 141.45 269.82 141.17 272.83 140.53C272.83 140.53 287.07 119.36 287.07 113.97C287.08 113.92 274.64 115.23 264.69 122Z" fill="#FF7324" stroke="#263238" stroke-width="1.1133" stroke-miterlimit="10"/>
<path d="M163.71 129.8C162.47 133.97 168.46 147.63 185.07 152.8C185.07 152.8 197.75 151.56 193.52 141.36C189.57 131.84 169.6 129.47 163.71 129.8Z" fill="#FF7324" stroke="#263238" stroke-width="1.1133" stroke-miterlimit="10"/>
<path d="M222.41 112C221.1 112.23 219.84 112.47 218.63 112.71C220.63 122.81 223.92 139.63 226.86 139.63C229.8 139.63 232.05 121.19 233.01 110.86C229.456 111.01 225.915 111.39 222.41 112V112Z" fill="#FF7324" stroke="#263238" stroke-width="1.1133" stroke-miterlimit="10"/>
<path d="M210.94 136.63C214 134.83 213.54 121.3 213.05 113.96C209.892 114.745 206.783 115.716 203.74 116.87C204.85 123.74 207.67 138.55 210.94 136.63Z" fill="#FF7324" stroke="#263238" stroke-width="1.1133" stroke-miterlimit="10"/>
<path d="M240.55 130.41C243.68 131.51 245.44 120.26 246.43 111.6C243.269 111.085 240.073 110.814 236.87 110.79C236.77 117.9 237.16 129.22 240.55 130.41Z" fill="#FF7324" stroke="#263238" stroke-width="1.1133" stroke-miterlimit="10"/>
<path d="M236.36 169.35C233.44 168.582 230.336 168.965 227.69 170.42C227.574 170.487 227.475 170.58 227.402 170.692C227.328 170.804 227.282 170.932 227.266 171.065C227.251 171.198 227.266 171.333 227.312 171.459C227.358 171.585 227.433 171.698 227.53 171.79L232.84 176.79C232.94 176.883 233.06 176.951 233.191 176.989C233.322 177.027 233.46 177.032 233.594 177.006C233.728 176.98 233.854 176.922 233.961 176.837C234.068 176.753 234.153 176.644 234.21 176.52L236.93 170.52C236.979 170.407 237.002 170.284 236.999 170.16C236.996 170.037 236.967 169.916 236.913 169.805C236.859 169.694 236.781 169.596 236.686 169.517C236.59 169.439 236.479 169.382 236.36 169.35V169.35Z" fill="#FF7324" stroke="#263238" stroke-width="1.1133" stroke-linecap="round" stroke-linejoin="round"/>
<path d="M223.74 161C224.47 162.93 224.18 164.83 223.09 165.24C222 165.65 220.52 164.43 219.78 162.51C219.04 160.59 219.34 158.68 220.43 158.27C221.52 157.86 223 159.08 223.74 161Z" fill="#263238"/>
<path d="M238.22 159.63C237.84 161.63 238.46 163.48 239.61 163.69C240.76 163.9 242 162.44 242.38 160.41C242.76 158.38 242.14 156.57 240.99 156.35C239.84 156.13 238.6 157.61 238.22 159.63Z" fill="#263238"/>
<path d="M234.21 176.51C234.21 176.51 227.11 186.15 220.64 176.45" stroke="#263238" stroke-width="1.1133" stroke-linecap="round" stroke-linejoin="round"/>
<path d="M232.84 176.78C232.84 176.78 237.56 181.67 242.54 178.93C247.52 176.19 244.54 171.93 244.54 171.93" stroke="#263238" stroke-width="1.1133" stroke-linecap="round" stroke-linejoin="round"/>
<path d="M211.19 153.3C211.19 153.3 212.93 147.08 221.14 148.57" stroke="#263238" stroke-width="3.33991" stroke-linecap="round" stroke-linejoin="round"/>
<path d="M236.07 147.58C236.07 147.58 242.29 143.85 248.01 149.82" stroke="#263238" stroke-width="3.33991" stroke-linecap="round" stroke-linejoin="round"/>
<path d="M206.46 169.98L212.43 171.47" stroke="#263238" stroke-width="1.1133" stroke-miterlimit="10" stroke-linecap="round"/>
<path d="M211.68 173.71L206.46 174.7" stroke="#263238" stroke-width="1.1133" stroke-miterlimit="10" stroke-linecap="round"/>
<path d="M212.68 176.45L208.95 178.44" stroke="#263238" stroke-width="1.1133" stroke-miterlimit="10" stroke-linecap="round"/>
<path d="M250.5 167.24L255.73 165.99" stroke="#263238" stroke-width="1.1133" stroke-miterlimit="10" stroke-linecap="round"/>
<path d="M251.5 169.73H254.98" stroke="#263238" stroke-width="1.1133" stroke-miterlimit="10" stroke-linecap="round"/>
<path d="M252.24 172.22L256.97 173.46" stroke="#263238" stroke-width="1.1133" stroke-miterlimit="10" stroke-linecap="round"/>
<path d="M23.7807 210.317C22.5888 210.317 21.7383 210.079 21.2292 209.604C20.7201 209.128 20.3849 208.259 20.2235 206.997C20.0745 205.735 20 203.622 20 200.659C20 197.695 20.0745 195.582 20.2235 194.32C20.3849 193.058 20.7201 192.189 21.2292 191.713C21.7383 191.238 22.5888 191 23.7807 191C24.9851 191 25.8418 191.238 26.3508 191.713C26.8599 192.189 27.1889 193.058 27.3379 194.32C27.4869 195.564 27.5614 197.677 27.5614 200.659C27.5614 203.64 27.4869 205.762 27.3379 207.024C27.1889 208.268 26.8599 209.128 26.3508 209.604C25.8418 210.079 24.9851 210.317 23.7807 210.317ZM23.7807 208.863C24.6622 208.863 25.2706 208.726 25.6059 208.451C25.9411 208.159 26.1646 207.473 26.2763 206.393C26.4005 205.314 26.4626 203.402 26.4626 200.659C26.4626 197.915 26.4005 196.003 26.2763 194.924C26.1646 193.845 25.9411 193.168 25.6059 192.893C25.2706 192.601 24.6622 192.454 23.7807 192.454C22.8992 192.454 22.2908 192.601 21.9555 192.893C21.6203 193.168 21.3906 193.845 21.2664 194.924C21.1547 196.003 21.0988 197.915 21.0988 200.659C21.0988 203.402 21.1547 205.314 21.2664 206.393C21.3906 207.473 21.6203 208.159 21.9555 208.451C22.2908 208.726 22.8992 208.863 23.7807 208.863Z" fill="black"/>
<path d="M33.4929 210.317C32.3009 210.317 31.4504 210.079 30.9414 209.604C30.4323 209.128 30.0971 208.259 29.9357 206.997C29.7867 205.735 29.7122 203.622 29.7122 200.659C29.7122 197.695 29.7867 195.582 29.9357 194.32C30.0971 193.058 30.4323 192.189 30.9414 191.713C31.4504 191.238 32.3009 191 33.4929 191C34.6973 191 35.554 191.238 36.063 191.713C36.5721 192.189 36.9011 193.058 37.0501 194.32C37.1991 195.564 37.2736 197.677 37.2736 200.659C37.2736 203.64 37.1991 205.762 37.0501 207.024C36.9011 208.268 36.5721 209.128 36.063 209.604C35.554 210.079 34.6973 210.317 33.4929 210.317ZM33.4929 208.863C34.3744 208.863 34.9828 208.726 35.3181 208.451C35.6533 208.159 35.8768 207.473 35.9885 206.393C36.1127 205.314 36.1748 203.402 36.1748 200.659C36.1748 197.915 36.1127 196.003 35.9885 194.924C35.8768 193.845 35.6533 193.168 35.3181 192.893C34.9828 192.601 34.3744 192.454 33.4929 192.454C32.6114 192.454 32.003 192.601 31.6677 192.893C31.3325 193.168 31.1028 193.845 30.9786 194.924C30.8669 196.003 30.811 197.915 30.811 200.659C30.811 203.402 30.8669 205.314 30.9786 206.393C31.1028 207.473 31.3325 208.159 31.6677 208.451C32.003 208.726 32.6114 208.863 33.4929 208.863Z" fill="black"/>
<path d="M39.741 191.22H43.4844C44.3412 191.22 44.9806 191.466 45.4027 191.96C45.8373 192.454 46.1105 193.104 46.2222 193.909C46.3464 194.713 46.4084 195.756 46.4084 197.037C46.4084 198.28 46.3464 199.305 46.2222 200.11C46.098 200.915 45.8187 201.573 45.3841 202.085C44.962 202.598 44.3225 202.854 43.4658 202.854H40.8398V210.098H39.741V191.22ZM43.2423 201.427C43.8631 201.427 44.3163 201.262 44.6019 200.933C44.8999 200.604 45.0923 200.146 45.1792 199.561C45.2662 198.957 45.3096 198.116 45.3096 197.037C45.3096 195.939 45.2662 195.098 45.1792 194.512C45.1047 193.927 44.9185 193.479 44.6205 193.168C44.335 192.838 43.8818 192.674 43.261 192.674H40.8398V201.427H43.2423Z" fill="black"/>
<path d="M51.2292 210.317C50.7201 210.317 50.1738 210.28 49.5903 210.207C49.0191 210.152 48.5225 210.07 48.1003 209.96V208.534C48.5349 208.625 49.0129 208.707 49.5344 208.78C50.0683 208.835 50.5215 208.863 50.8939 208.863C51.3906 208.863 51.7879 208.817 52.0859 208.726C52.3963 208.616 52.6632 208.424 52.8867 208.149C53.0854 207.912 53.2158 207.537 53.2778 207.024C53.3399 206.512 53.371 205.835 53.371 204.994C53.371 203.878 53.3461 203.11 53.2965 202.689C53.2468 202.25 53.1226 201.948 52.924 201.784C52.7253 201.601 52.3715 201.445 51.8624 201.317L49.5716 200.796C49.0502 200.686 48.6653 200.439 48.4169 200.055C48.1686 199.671 48.0072 199.186 47.9327 198.601C47.8706 197.997 47.8396 197.174 47.8396 196.131C47.8396 194.284 48.1003 192.966 48.6218 192.18C49.1557 191.393 50.0248 191 51.2292 191C51.7382 191 52.2473 191.037 52.7564 191.11C53.2778 191.183 53.6876 191.274 53.9856 191.384V192.784C53.6379 192.692 53.2282 192.619 52.7564 192.564C52.2845 192.491 51.85 192.454 51.4527 192.454C50.8939 192.454 50.447 192.527 50.1117 192.674C49.7889 192.802 49.5406 193.021 49.3668 193.332C49.1929 193.643 49.075 194.018 49.0129 194.457C48.9632 194.878 48.9384 195.436 48.9384 196.131C48.9384 197.027 48.9632 197.677 49.0129 198.079C49.075 198.482 49.1805 198.765 49.3295 198.93C49.4909 199.095 49.7579 199.223 50.1304 199.314L52.2908 199.808C52.8495 199.954 53.2778 200.155 53.5758 200.412C53.8862 200.668 54.1221 201.107 54.2835 201.729C54.4077 202.204 54.4698 203.229 54.4698 204.802C54.4698 206.174 54.3705 207.253 54.1718 208.04C53.9731 208.826 53.6379 209.402 53.1661 209.768C52.7067 210.134 52.0611 210.317 51.2292 210.317Z" fill="black"/>
<path d="M56.3571 210.098V207.902H57.5863V210.098H56.3571Z" fill="black"/>
<path d="M59.7036 210.098V207.902H60.9328V210.098H59.7036Z" fill="black"/>
<path d="M63.0501 210.098V207.902H64.2793V210.098H63.0501Z" fill="black"/>
<path d="M20.3166 233.902H24.0601C24.9168 233.902 25.5562 234.149 25.9783 234.643C26.4129 235.137 26.6861 235.787 26.7978 236.591C26.922 237.396 26.984 238.439 26.984 239.72C26.984 240.963 26.922 241.988 26.7978 242.793C26.6736 243.598 26.3943 244.256 25.9597 244.768C25.5376 245.28 24.8981 245.537 24.0414 245.537H21.4154V252.78H20.3166V233.902ZM23.8179 244.11C24.4388 244.11 24.8919 243.945 25.1775 243.616C25.4755 243.287 25.6679 242.829 25.7549 242.244C25.8418 241.64 25.8852 240.799 25.8852 239.72C25.8852 238.622 25.8418 237.78 25.7549 237.195C25.6804 236.61 25.4941 236.162 25.1961 235.851C24.9106 235.521 24.4574 235.357 23.8366 235.357H21.4154V244.11H23.8179Z" fill="black"/>
<path d="M34.4136 252.78L33.4079 247.21H29.2547L28.2677 252.78H27.1502L30.6702 233.902H32.0297L35.5497 252.78H34.4136ZM31.3779 236.098H31.2848L29.5341 245.784H33.1286L31.3779 236.098ZM30.7819 232.201V232.064L31.8249 228.36H32.9609V228.497L31.5455 232.201H30.7819Z" fill="black"/>
<path d="M40.6558 244.357V242.93H43.8591V252.506C43.4121 252.652 42.9155 252.771 42.3692 252.863C41.8353 252.954 41.3511 253 40.9165 253C39.7991 253 38.9734 252.762 38.4395 252.287C37.9056 251.811 37.5331 250.915 37.322 249.598C37.111 248.262 37.0054 246.177 37.0054 243.341C37.0054 240.543 37.1048 238.485 37.3034 237.168C37.5145 235.832 37.887 234.918 38.4209 234.424C38.9672 233.93 39.8053 233.683 40.9351 233.683C41.4194 233.683 41.9284 233.738 42.4623 233.848C43.0086 233.939 43.4618 234.058 43.8219 234.204V235.549C43.4494 235.439 43.0334 235.348 42.574 235.274C42.1147 235.183 41.736 235.137 41.438 235.137C40.395 235.137 39.6625 235.284 39.2403 235.576C38.8182 235.851 38.5202 236.537 38.3464 237.634C38.185 238.732 38.1043 240.634 38.1043 243.341C38.1043 245.829 38.1663 247.622 38.2905 248.72C38.4147 249.817 38.663 250.567 39.0355 250.97C39.4204 251.372 40.0474 251.573 40.9165 251.573C41.2269 251.573 41.5559 251.546 41.9036 251.491C42.2636 251.436 42.5554 251.372 42.7789 251.299V244.357H40.6558Z" fill="black"/>
<path d="M46.4176 252.78V233.902H47.4978V252.78H46.4176Z" fill="black"/>
<path d="M56.3045 252.78L51.4623 237.442H51.3878V252.78H50.3448V233.902H51.5181L56.3045 249.104H56.379V233.902H57.4406V252.78H56.3045Z" fill="black"/>
<path d="M66.4784 252.78L65.4727 247.21H61.3195L60.3325 252.78H59.215L62.735 233.902H64.0945L67.6145 252.78H66.4784ZM63.4427 236.098H63.3496L61.5989 245.784H65.1934L63.4427 236.098Z" fill="black"/>
<path d="M78.9118 252.78L74.0695 237.442H73.995V252.78H72.952V233.902H74.1254L78.9118 249.104H78.9863V233.902H80.0478V252.78H78.9118Z" fill="black"/>
<path d="M89.0856 252.78L88.0799 247.21H83.9268L82.9397 252.78H81.8222L85.3422 233.902H86.7018L90.2217 252.78H89.0856ZM86.0499 236.098H85.9568L84.2061 245.784H87.8006L86.0499 236.098ZM88.5642 229.073C88.5642 230.152 88.4959 230.893 88.3593 231.296C88.2351 231.698 87.9496 231.899 87.5026 231.899C87.2667 231.899 87.0308 231.845 86.7949 231.735C86.5714 231.625 86.2734 231.46 85.9009 231.241C85.6029 231.04 85.3546 230.893 85.1559 230.802C84.9697 230.692 84.7835 230.637 84.5972 230.637C84.411 230.637 84.2868 230.747 84.2247 230.966C84.1751 231.186 84.1502 231.598 84.1502 232.201H83.4612C83.4612 231.14 83.5294 230.409 83.666 230.006C83.8026 229.585 84.0944 229.375 84.5413 229.375C84.7897 229.375 85.0318 229.439 85.2677 229.567C85.516 229.677 85.8202 229.851 86.1803 230.088C86.4907 230.271 86.7328 230.409 86.9066 230.5C87.0929 230.591 87.2729 230.637 87.4467 230.637C87.633 230.637 87.7509 230.537 87.8006 230.335C87.8502 230.116 87.8751 229.695 87.8751 229.073H88.5642Z" fill="black"/>
<path d="M95.4581 253C94.2662 253 93.4157 252.762 92.9066 252.287C92.3976 251.811 92.0624 250.942 91.9009 249.68C91.7519 248.418 91.6774 246.305 91.6774 243.341C91.6774 240.378 91.7519 238.265 91.9009 237.003C92.0624 235.741 92.3976 234.872 92.9066 234.396C93.4157 233.921 94.2662 233.683 95.4581 233.683C96.6625 233.683 97.5192 233.921 98.0283 234.396C98.5373 234.872 98.8664 235.741 99.0154 237.003C99.1644 238.247 99.2388 240.36 99.2388 243.341C99.2388 246.323 99.1644 248.445 99.0154 249.707C98.8664 250.951 98.5373 251.811 98.0283 252.287C97.5192 252.762 96.6625 253 95.4581 253ZM95.4581 251.546C96.3397 251.546 96.9481 251.409 97.2833 251.134C97.6185 250.841 97.842 250.155 97.9538 249.076C98.0779 247.997 98.14 246.085 98.14 243.341C98.14 240.598 98.0779 238.686 97.9538 237.607C97.842 236.527 97.6185 235.851 97.2833 235.576C96.9481 235.284 96.3397 235.137 95.4581 235.137C94.5766 235.137 93.9682 235.284 93.633 235.576C93.2977 235.851 93.068 236.527 92.9439 237.607C92.8321 238.686 92.7763 240.598 92.7763 243.341C92.7763 246.085 92.8321 247.997 92.9439 249.076C93.068 250.155 93.2977 250.841 93.633 251.134C93.9682 251.409 94.5766 251.546 95.4581 251.546Z" fill="black"/>
<path d="M105.253 252.78V233.902H111.213V235.357H106.37V242.518H110.579V243.945H106.37V251.326H111.213V252.78H105.253Z" fill="black"/>
<path d="M119.27 252.78L114.428 237.442H114.353V252.78H113.31V233.902H114.484L119.27 249.104H119.345V233.902H120.406V252.78H119.27Z" fill="black"/>
<path d="M128.606 252.698C128.333 252.79 128.004 252.863 127.619 252.918C127.234 252.973 126.88 253 126.557 253C125.452 253 124.645 252.771 124.136 252.314C123.639 251.838 123.298 250.951 123.112 249.652C122.938 248.335 122.851 246.232 122.851 243.341C122.851 240.488 122.938 238.412 123.112 237.113C123.298 235.796 123.639 234.899 124.136 234.424C124.645 233.93 125.452 233.683 126.557 233.683C126.892 233.683 127.246 233.72 127.619 233.793C128.004 233.866 128.32 233.948 128.569 234.04V235.384C127.898 235.22 127.302 235.137 126.781 235.137C125.862 235.137 125.216 235.311 124.844 235.659C124.484 236.006 124.242 236.72 124.117 237.799C124.006 238.86 123.95 240.707 123.95 243.341C123.95 245.976 124.006 247.832 124.117 248.912C124.242 249.973 124.484 250.677 124.844 251.024C125.216 251.372 125.862 251.546 126.781 251.546C127.414 251.546 128.022 251.463 128.606 251.299V252.698Z" fill="black"/>
<path d="M134.107 253C132.915 253 132.064 252.762 131.555 252.287C131.046 251.811 130.711 250.942 130.55 249.68C130.401 248.418 130.326 246.305 130.326 243.341C130.326 240.378 130.401 238.265 130.55 237.003C130.711 235.741 131.046 234.872 131.555 234.396C132.064 233.921 132.915 233.683 134.107 233.683C135.311 233.683 136.168 233.921 136.677 234.396C137.186 234.872 137.515 235.741 137.664 237.003C137.813 238.247 137.888 240.36 137.888 243.341C137.888 246.323 137.813 248.445 137.664 249.707C137.515 250.951 137.186 251.811 136.677 252.287C136.168 252.762 135.311 253 134.107 253ZM134.107 251.546C134.988 251.546 135.597 251.409 135.932 251.134C136.267 250.841 136.491 250.155 136.602 249.076C136.727 247.997 136.789 246.085 136.789 243.341C136.789 240.598 136.727 238.686 136.602 237.607C136.491 236.527 136.267 235.851 135.932 235.576C135.597 235.284 134.988 235.137 134.107 235.137C133.225 235.137 132.617 235.284 132.282 235.576C131.946 235.851 131.717 236.527 131.593 237.607C131.481 238.686 131.425 240.598 131.425 243.341C131.425 246.085 131.481 247.997 131.593 249.076C131.717 250.155 131.946 250.841 132.282 251.134C132.617 251.409 133.225 251.546 134.107 251.546Z" fill="black"/>
<path d="M146.333 252.78L141.491 237.442H141.417V252.78H140.374V233.902H141.547L146.333 249.104H146.408V233.902H147.469V252.78H146.333Z" fill="black"/>
<path d="M152.149 252.78V235.384H149.207V233.902H156.191V235.384H153.248V252.78H152.149Z" fill="black"/>
<path d="M163.735 252.78L162.059 244.988H159.023V252.78H157.924V233.902H161.798C162.655 233.902 163.294 234.14 163.716 234.616C164.138 235.091 164.405 235.713 164.517 236.482C164.641 237.25 164.703 238.238 164.703 239.445C164.703 240.854 164.604 241.997 164.405 242.875C164.219 243.735 163.797 244.338 163.139 244.686L164.908 252.78H163.735ZM161.537 243.561C162.158 243.561 162.611 243.405 162.897 243.095C163.195 242.784 163.387 242.354 163.474 241.805C163.561 241.238 163.605 240.451 163.605 239.445C163.605 238.421 163.561 237.634 163.474 237.085C163.4 236.537 163.22 236.116 162.934 235.823C162.649 235.512 162.195 235.357 161.575 235.357H159.023V243.561H161.537Z" fill="black"/>
<path d="M173.403 252.78L172.398 247.21H168.245L167.258 252.78H166.14L169.66 233.902H171.02L174.54 252.78H173.403ZM170.368 236.098H170.275L168.524 245.784H172.118L170.368 236.098Z" fill="black"/>
<path d="M176.312 233.902H179.292C180.509 233.902 181.378 234.131 181.899 234.588C182.421 235.046 182.756 235.896 182.905 237.14C183.066 238.366 183.147 240.433 183.147 243.341C183.147 246.25 183.066 248.326 182.905 249.57C182.756 250.796 182.421 251.637 181.899 252.095C181.378 252.552 180.509 252.78 179.292 252.78H176.312V233.902ZM179.217 251.326C180.161 251.326 180.807 251.189 181.154 250.915C181.514 250.64 181.75 249.982 181.862 248.939C181.986 247.896 182.048 246.03 182.048 243.341C182.048 240.652 181.986 238.787 181.862 237.744C181.738 236.701 181.496 236.043 181.136 235.768C180.788 235.494 180.148 235.357 179.217 235.357H177.411V251.326H179.217Z" fill="black"/>
<path d="M191.864 252.78L190.858 247.21H186.705L185.718 252.78H184.601L188.12 233.902H189.48L193 252.78H191.864ZM188.828 236.098H188.735L186.984 245.784H190.579L188.828 236.098Z" fill="black"/>
</svg>
