<svg width="758" height="421" viewBox="0 0 758 421" fill="none" xmlns="http://www.w3.org/2000/svg">
<path d="M101.368 327.896C101.368 327.896 129.865 394.524 221.065 414.323C312.264 434.131 387.259 396.925 460.946 381.869C499.537 373.984 539.536 383.326 578.961 381.878C705.041 377.254 776.787 266.259 740.655 194.36C709.383 132.11 638.586 93.5162 522.24 73.189C405.908 52.8618 325.003 35.4044 207.003 79.4395C89.0319 123.466 70.1536 241.01 101.368 327.896Z" fill="#FFC648"/>
<path opacity="0.7" d="M98.4287 326.895C98.4287 326.895 127.055 394.247 218.668 414.261C310.28 434.284 385.616 396.675 459.637 381.455C498.402 373.484 538.583 382.927 578.186 381.464C704.837 376.789 776.908 264.588 740.613 191.908C709.199 128.98 638.081 89.9674 521.208 69.4193C404.348 48.8711 323.077 31.224 204.542 75.7378C86.0365 120.243 67.0728 239.064 98.4287 326.895Z" fill="white"/>
<path d="M362.28 68.9711C362.28 68.9711 362.29 69.0711 362.3 69.2511C362.46 71.2411 363.31 83.4011 360.53 86.8811C357.5 90.6711 350.42 94.9711 339.56 97.2411C328.7 99.5111 320.86 100.781 317.32 108.861C313.78 116.951 311 142.971 311 142.971C311 142.971 314.29 146.001 319.09 147.271C323.89 148.531 326.92 148.031 328.69 148.531C330.46 149.031 330.46 149.041 330.46 149.041L334.76 140.951L342.34 180.881L342.09 195.031C342.09 195.031 329.71 221.311 325.41 244.311C321.11 267.311 319.85 337.561 319.6 348.421C319.35 359.291 318.59 369.391 318.59 369.391L318.34 412.221H447.22C447.22 412.221 446.71 311.021 441.91 278.671C437.11 246.321 420.68 197.801 419.67 195.021C418.66 192.241 418.41 190.981 418.41 189.971C418.41 188.961 418.16 181.631 417.65 180.111C417.14 178.591 417.14 177.081 417.14 177.081C417.14 177.081 421.44 165.961 421.44 160.151C421.44 154.341 421.44 149.031 421.44 149.031L424.47 154.341C424.47 154.341 427.5 156.871 433.82 154.091C440.14 151.311 444.18 144.231 446.2 142.721C448.22 141.211 448.98 140.191 448.98 140.191C448.98 140.191 443.93 120.731 439.38 109.871C434.83 99.0011 417.39 95.2111 411.58 93.1911C405.77 91.1711 394.65 87.6311 392.88 84.3511C391.11 81.0611 391.57 68.9711 391.57 68.9711H362.28V68.9711Z" fill="#263238" stroke="#263238" stroke-miterlimit="10"/>
<path d="M421.43 149.041L424.46 154.351C424.46 154.351 427.49 156.881 433.81 154.101C440.13 151.321 444.17 144.241 446.19 142.731C448.21 141.221 448.97 140.201 448.97 140.201C448.97 140.201 443.92 120.741 439.37 109.881C434.82 99.0111 417.38 95.2211 411.57 93.2011C405.76 91.1811 394.64 87.6411 392.87 84.3611C391.1 81.0711 391.56 68.9811 391.56 68.9811H362.28C362.28 68.9811 362.29 69.0811 362.3 69.2611C362.46 71.2511 363.31 83.4111 360.53 86.8911C357.5 90.6811 350.42 94.9811 339.56 97.2511C328.7 99.5211 320.86 100.791 317.32 108.871C313.78 116.961 311 142.981 311 142.981C311 142.981 314.29 146.011 319.09 147.281C323.89 148.541 326.92 148.041 328.69 148.541C330.46 149.041 330.46 149.051 330.46 149.051L334.76 140.961L342.34 180.891C342.34 180.891 387.53 190.061 417.14 177.101C417.14 177.101 421.44 165.981 421.44 160.171C421.43 154.351 421.43 149.041 421.43 149.041Z" fill="white" stroke="#263238" stroke-miterlimit="10"/>
<path d="M376.71 104.311C394.17 104.971 404.86 97.7911 410.19 92.7111C404.15 90.6411 394.52 87.3811 392.88 84.3411C391.11 81.0511 391.57 68.9611 391.57 68.9611H362.28C362.28 68.9611 362.29 69.0611 362.3 69.2411C362.46 71.2311 363.31 83.3911 360.53 86.8711C358.12 89.8911 353.14 93.2211 345.73 95.6011C349.5 98.6611 358.36 103.621 376.71 104.311Z" fill="#858585" stroke="#263238" stroke-miterlimit="10" stroke-linecap="round" stroke-linejoin="round"/>
<path d="M376.93 74.9411C385.021 74.9411 391.58 72.2683 391.58 68.9711C391.58 65.674 385.021 63.0011 376.93 63.0011C368.839 63.0011 362.28 65.674 362.28 68.9711C362.28 72.2683 368.839 74.9411 376.93 74.9411Z" fill="#A3A3A3" stroke="#263238" stroke-miterlimit="10" stroke-linecap="round" stroke-linejoin="round"/>
<path d="M355.33 183.691C355.33 183.691 353.66 185.691 354 189.361C354.33 193.031 354.33 200.031 354.33 200.031C354.33 200.031 352.66 219.701 353 236.701" stroke="#808080" stroke-miterlimit="10"/>
<path d="M350.67 196.691C350.67 196.691 344.34 233.361 346.67 250.691" stroke="#808080" stroke-miterlimit="10"/>
<path d="M332.92 246.461C332.81 247.431 332.73 248.401 332.67 249.361" stroke="#808080" stroke-miterlimit="10"/>
<path d="M348.33 200.361C348.33 200.361 337.36 221.281 333.72 241.021" stroke="#808080" stroke-miterlimit="10"/>
<path d="M397.58 252.221C397.52 253.651 397.44 255.031 397.34 256.351" stroke="#808080" stroke-miterlimit="10"/>
<path d="M394.33 187.021V198.691C394.33 198.691 397.75 225.521 397.69 246.431" stroke="#808080" stroke-miterlimit="10"/>
<path d="M409 182.691L410.33 195.361C410.33 195.361 419 225.031 419 249.031" stroke="#808080" stroke-miterlimit="10"/>
<path d="M428.69 240.221C429.1 242.951 429.33 245.471 429.33 247.681" stroke="#808080" stroke-miterlimit="10"/>
<path d="M413.33 180.691C413.33 181.691 415 193.691 415 193.691C415 193.691 423.3 214.931 427.27 232.721" stroke="#808080" stroke-miterlimit="10"/>
<path d="M569.73 63.7111C553.74 63.7111 540.73 76.7211 540.73 92.7111V398.211H549.73V92.7111C549.73 81.6811 558.7 72.7111 569.73 72.7111H756.23V63.7111H569.73V63.7111Z" fill="white" stroke="#263238" stroke-miterlimit="10"/>
<path d="M720.72 124.291L715 120.341C707 114.811 700.53 106.711 696.38 97.0011L691.61 85.8711H690.89H684.75H684.03L679.26 97.0011C675.1 106.701 668.63 114.801 660.63 120.341L654.91 124.291C651.71 126.501 649.75 130.521 649.75 134.851H684.74H690.88H725.87C725.88 130.521 723.92 126.501 720.72 124.291ZM689.95 130.181H685.7H657.23C657.23 126.671 662.82 123.421 665.04 121.631L669 118.431C674.54 113.961 679.02 107.401 681.9 99.5511L685.2 90.5511H685.7H689.95H690.45L693.75 99.5511C696.63 107.401 701.11 113.951 706.65 118.431L710.61 121.631C712.82 123.421 718.31 126.671 718.31 130.181H689.95Z" fill="white" stroke="#263238" stroke-miterlimit="10" stroke-linejoin="round"/>
<path d="M687.78 85.7011V77.5311C687.78 77.5311 692.45 74.0311 692.45 68.9711C692.45 63.9111 688.56 61.9711 684.28 63.5311" stroke="#263238" stroke-miterlimit="10" stroke-linecap="round" stroke-linejoin="round"/>
<path d="M676.79 99.3311L685.6 124.661L696.37 97.0111C696.37 97.0111 714.78 115.851 720.84 119.161C726.9 122.471 732.4 126.871 734.05 135.681C735.7 144.491 744.51 232.591 744.51 232.591L724.14 233.691L725.98 283.511H643.75L648.71 231.481H629.44C629.44 231.481 641.55 136.221 644.86 129.621C648.17 123.021 676.79 99.3311 676.79 99.3311Z" fill="#263238" stroke="#263238" stroke-miterlimit="10" stroke-linejoin="round"/>
<path d="M668.53 105.391L673.49 132.371L683.95 114.751L677.34 96.0311L668.53 105.391Z" fill="white" stroke="#263238" stroke-miterlimit="10" stroke-linejoin="round"/>
<path d="M696.38 97.0011L687.25 115.301L696.61 133.471L704.32 103.181L696.38 97.0011Z" fill="white" stroke="#263238" stroke-miterlimit="10" stroke-linejoin="round"/>
<path d="M724.15 233.681L719.74 149.991" stroke="#808080" stroke-miterlimit="10"/>
<path d="M648.71 231.481L656.42 149.991" stroke="#263238" stroke-miterlimit="10" stroke-linejoin="round"/>
<path d="M698.91 124.291L693.19 120.341C685.19 114.811 678.72 106.711 674.56 97.0011L669.79 85.8711H669.07H662.93H662.23L657.46 97.0011C653.3 106.701 646.84 114.801 638.84 120.341L633.12 124.291C629.92 126.501 627.96 130.521 627.96 134.851H662.95H669.09H704.08C704.07 130.521 702.11 126.501 698.91 124.291ZM668.14 130.181H663.89H635.43C635.43 126.671 641.02 123.421 643.24 121.631L647.2 118.431C652.74 113.961 657.22 107.401 660.1 99.5511L663.4 90.5511H663.9H668.15H668.65L671.95 99.5511C674.83 107.401 679.31 113.951 684.85 118.431L688.81 121.631C691.02 123.421 696.51 126.671 696.51 130.181H668.14Z" fill="white" stroke="#263238" stroke-miterlimit="10" stroke-linejoin="round"/>
<path d="M665.97 85.7011V77.5311C665.97 77.5311 670.64 74.0311 670.64 68.9711C670.64 63.9111 666.75 61.9711 662.47 63.5311" stroke="#263238" stroke-miterlimit="10" stroke-linecap="round" stroke-linejoin="round"/>
<path d="M654.99 99.3311L663.8 124.661L674.57 97.0111C674.57 97.0111 692.98 115.851 699.04 119.161C705.1 122.461 710.6 126.871 712.25 135.681C713.9 144.491 722.71 232.591 722.71 232.591L702.34 233.691L704.18 283.511H621.95L626.91 231.481H607.63C607.63 231.481 619.74 136.221 623.05 129.621C626.36 123.011 654.99 99.3311 654.99 99.3311Z" fill="#FF7324" stroke="#263238" stroke-miterlimit="10" stroke-linejoin="round"/>
<path d="M646.73 105.391L651.68 132.371L662.15 114.751L655.54 96.0311L646.73 105.391Z" fill="white" stroke="#263238" stroke-miterlimit="10" stroke-linejoin="round"/>
<path d="M674.57 97.0011L665.45 115.301L674.81 133.471L682.52 103.181L674.57 97.0011Z" fill="white" stroke="#263238" stroke-miterlimit="10" stroke-linejoin="round"/>
<path d="M702.34 233.681L697.94 149.991" stroke="#263238" stroke-miterlimit="10" stroke-linejoin="round"/>
<path d="M626.9 231.481L634.61 149.991" stroke="#263238" stroke-miterlimit="10" stroke-linejoin="round"/>
<path d="M651.15 127.731L645.11 123.551C636.66 117.711 629.83 109.151 625.44 98.9111L620.4 87.1611H619.64H613.16H612.4L607.36 98.9111C602.97 109.161 596.14 117.711 587.69 123.551L581.65 127.731C578.27 130.061 576.2 134.311 576.2 138.891H613.15H619.63H656.58C656.6 134.311 654.53 130.071 651.15 127.731ZM618.65 133.951H614.16H584.1C584.1 130.241 590.01 126.811 592.35 124.921L596.53 121.541C602.38 116.811 607.11 109.891 610.15 101.601L613.64 92.0911H614.16H618.65H619.17L622.66 101.601C625.7 109.891 630.43 116.811 636.28 121.541L640.46 124.921C642.8 126.811 648.59 130.241 648.59 133.951H618.65Z" fill="white" stroke="#263238" stroke-miterlimit="10" stroke-linejoin="round"/>
<path d="M616.36 86.9711V78.3411C616.36 78.3411 621.29 74.6411 621.29 69.3011C621.29 63.9611 617.18 61.9111 612.67 63.5511" stroke="#263238" stroke-miterlimit="10" stroke-linecap="round" stroke-linejoin="round"/>
<path d="M593.39 114.711C593.39 114.711 602.55 125.271 614.06 125.451C626.28 125.641 640.64 114.951 640.64 114.951C640.64 114.951 644.88 118.811 651.28 122.301C657.68 125.791 661.88 130.891 665.24 139.751C668.98 149.621 677.24 176.451 677.24 176.451L653.46 177.611L656.72 231.541H577.63L582.99 176.601H559.9C559.9 176.601 567.55 140.331 571.04 133.351C574.52 126.371 593.39 114.711 593.39 114.711Z" fill="white" stroke="#263238" stroke-miterlimit="10" stroke-linejoin="round"/>
<path d="M582.98 176.601L584.19 147.771" stroke="#263238" stroke-miterlimit="10" stroke-linejoin="round"/>
<path d="M653.45 177.611L651.59 149.611" stroke="#263238" stroke-miterlimit="10" stroke-linejoin="round"/>
<path d="M297.33 411.96H757.33" stroke="#263238" stroke-miterlimit="10" stroke-linecap="round" stroke-linejoin="round"/>
<path d="M92.7 4.06V167.82H5.06V4.06H92.7ZM95.76 1H92.7H5.06H2V4.06V167.82V170.88H5.06H92.7H95.76V167.82V4.06V1Z" stroke="#A2A7A9" stroke-miterlimit="10"/>
<path d="M10.28 34.98C11.16 35.64 12.1 36.2 13.05 36.71C14.97 37.71 16.97 38.53 19 39.24C20.02 39.59 21.04 39.91 22.08 40.2C23.12 40.47 24.15 40.77 25.26 40.84V40.61C24.23 40.51 23.19 40.17 22.18 39.87C21.16 39.55 20.16 39.19 19.16 38.81C17.17 38.04 15.23 37.16 13.39 36.11C12.48 35.58 11.59 35 10.78 34.35C9.98001 33.7 9.22 32.96 8.82 32.1L8.68 31.78C8.65 31.67 8.64001 31.56 8.61001 31.45C8.54001 31.23 8.59 31.02 8.59 30.81C8.68 30.39 8.86001 29.99 9.17001 29.64C9.78001 28.93 10.66 28.37 11.59 27.94C12.04 27.7 12.53 27.51 13.01 27.32C13.48 27.11 14 26.97 14.5 26.8C15.5 26.47 16.5 26.13 17.53 25.92L19.06 25.55L20.61 25.3C21.64 25.1 22.69 25.05 23.74 24.94C27.93 24.65 32.17 25.11 36.43 25.48C40.7 25.88 45.02 26.19 49.36 26.15C53.69 26.09 58.02 25.71 62.29 25.01C66.54 24.26 70.78 23.4 74.91 22.06L76.45 21.55C76.96 21.37 77.47 21.15 77.97 20.95C78.48 20.75 78.98 20.54 79.47 20.29C79.96 20.04 80.47 19.84 80.94 19.55C81.88 18.99 82.83 18.4 83.62 17.6C83.83 17.42 84.01 17.2 84.18 16.97C84.37 16.76 84.51 16.51 84.63 16.25C84.86 15.73 85 15.12 84.75 14.55L84.54 14.65C84.66 15.11 84.48 15.62 84.21 16.02C84.07 16.23 83.93 16.43 83.74 16.6C83.57 16.78 83.39 16.96 83.17 17.11C82.38 17.75 81.42 18.2 80.47 18.62C80.01 18.85 79.49 19 79.01 19.19C78.53 19.38 78.02 19.54 77.51 19.68C77 19.83 76.51 19.99 76 20.13L74.46 20.51C70.35 21.5 66.15 22.16 61.94 22.74C59.83 22.98 57.74 23.29 55.63 23.44C53.53 23.67 51.41 23.78 49.3 23.88C45.07 24.09 40.83 23.93 36.57 23.65C34.33 23.52 32.07 23.36 29.79 23.29C29.86 21.79 29.8 20.29 29.61 18.77C29.5 17.83 29.3 16.89 28.99 15.92C28.93 15.68 28.79 15.43 28.7 15.19C28.6 14.96 28.39 14.64 28.3 14.48C28.29 14.45 28.33 14.48 28.33 14.48C28.35 14.47 28.36 14.41 28.43 14.31C28.54 14.11 28.78 13.84 29.07 13.59C29.36 13.34 29.67 13.09 30.02 12.86C30.7 12.39 31.46 11.96 32.23 11.57C33.78 10.76 35.45 10.13 37.17 9.66C38.88 9.21 40.68 8.85 42.41 8.8C44.14 8.73 45.9 9.04 47.58 9.61C50.97 10.73 54.09 12.78 56.79 15.23L56.96 15.07C55.73 13.68 54.34 12.45 52.85 11.34C51.35 10.24 49.74 9.27 47.99 8.54C46.24 7.83 44.35 7.36 42.41 7.32C40.47 7.27 38.62 7.53 36.75 7.89C34.89 8.27 33.06 8.8 31.28 9.53C30.39 9.91 29.52 10.34 28.68 10.91C27.86 11.5 27.02 12.1 26.39 13.3C26.24 13.61 26.13 14 26.12 14.44C26.12 14.89 26.28 15.39 26.54 15.73C26.69 15.96 26.75 16.01 26.86 16.19C26.95 16.36 27.05 16.51 27.14 16.71C27.51 17.44 27.78 18.29 28.06 19.14C28.48 20.49 28.85 21.89 29.22 23.3C27.37 23.26 25.51 23.29 23.64 23.48C22.56 23.62 21.47 23.7 20.4 23.94L18.79 24.25L17.2 24.62C16.14 24.87 15.12 25.25 14.1 25.62C13.08 25.97 12.05 26.37 11.07 26.9C10.09 27.41 9.12 28.04 8.37 28.98C7.99 29.44 7.72 30.04 7.63 30.68C7.63 31 7.59001 31.33 7.69001 31.63C7.73001 31.78 7.76 31.94 7.81 32.08L8.00001 32.49C8.55001 33.56 9.41001 34.31 10.28 34.98Z" fill="#919191"/>
<path d="M55.08 61.48C54.77 60.74 54.41 60.04 54.03 59.35C53.26 57.97 52.43 56.65 51.56 55.34C50.14 53.22 48.64 51.15 47.1 49.12C47.72 47.98 48.31 46.84 48.85 45.66C49.48 44.3 50.06 42.91 50.56 41.5C51.99 41.78 53.49 41.82 54.95 41.6C56.63 41.36 58.24 40.76 59.72 40.01C60.42 39.63 61.13 39.24 61.81 38.82C62.48 38.37 63.16 37.94 63.79 37.43C65.07 36.44 66.29 35.32 67.3 33.98C67.81 33.33 68.24 32.57 68.54 31.76C68.67 31.35 68.78 30.92 68.78 30.47C68.79 30.03 68.7 29.57 68.42 29.2L68.23 29.33C68.36 30.03 68.01 30.73 67.6 31.3C67.18 31.88 66.67 32.41 66.11 32.9C65.83 33.15 65.55 33.38 65.25 33.61C64.96 33.84 64.67 34.08 64.35 34.28L63.43 34.94L62.47 35.56L58.59 38.03C57.35 38.83 56.03 39.47 54.61 39.79C53.19 40.11 51.71 40.16 50.25 39.91C48.79 39.65 47.36 39.14 46.03 38.42C43.33 37 40.95 34.89 38.99 32.47L38.8 32.6C39.64 33.95 40.64 35.19 41.75 36.33C42.86 37.48 44.08 38.53 45.45 39.41C46.8 40.28 48.3 40.95 49.89 41.36C47.93 44.1 46.11 46.89 44.22 49.61C43.14 51.17 42.08 52.73 40.95 54.19C40.39 54.91 39.79 55.62 39.16 56.13C38.85 56.41 38.52 56.57 38.29 56.66C38.24 56.66 38.18 56.69 38.15 56.69C38.12 56.68 38.09 56.69 38.06 56.69C38.03 56.67 38 56.66 37.96 56.66C37.91 56.62 37.86 56.58 37.81 56.54C37.34 56.12 36.91 55.24 36.59 54.41C36.26 53.56 35.98 52.66 35.74 51.74C35.26 49.91 34.89 48.03 34.57 46.14C33.9 42.36 33.43 38.54 33.03 34.7L32.8 34.71C32.84 38.57 33.06 42.43 33.43 46.29C33.64 48.22 33.9 50.14 34.29 52.07C34.48 53.03 34.72 54 35.03 54.96C35.19 55.44 35.36 55.92 35.6 56.41C35.82 56.89 36.11 57.39 36.56 57.86C36.69 57.98 36.83 58.09 36.96 58.2C37.13 58.3 37.32 58.39 37.51 58.47C37.71 58.53 37.92 58.55 38.13 58.58C38.33 58.59 38.51 58.55 38.7 58.53C39.4 58.37 39.93 58.07 40.38 57.75C41.29 57.11 42.01 56.38 42.69 55.64C44.04 54.14 45.15 52.51 46.16 50.83C46.44 50.35 46.7 49.85 46.97 49.37C48.43 51.41 49.85 53.47 51.19 55.58C52.02 56.9 52.82 58.24 53.54 59.61C53.9 60.3 54.24 60.99 54.51 61.7C54.64 62.06 54.78 62.41 54.84 62.77C54.95 63.22 54.96 63.25 54.69 63.43C54.15 63.74 53.32 63.79 52.58 63.84C51.82 63.87 51.04 63.85 50.27 63.82C48.72 63.74 47.18 63.59 45.63 63.4C42.54 63.03 39.46 62.53 36.38 62.01C33.3 61.49 30.23 60.92 27.17 60.34L22.57 59.46L21.41 59.24L20.83 59.14L20.53 59.09C20.5 59.09 20.5 59.08 20.43 59.08C20.36 59.08 20.28 59.08 20.21 59.08C20.14 59.09 20.06 59.1 19.99 59.11C19.9 59.14 19.81 59.19 19.73 59.24C19.54 59.36 19.47 59.48 19.41 59.61C19.38 59.67 19.34 59.75 19.32 59.81L19.29 59.95C19.25 60.15 19.25 60.29 19.26 60.42C19.27 60.69 19.31 60.91 19.36 61.12C19.45 61.55 19.57 61.94 19.69 62.33C20.72 65.38 22.01 68.21 23.25 71.09L27 79.68C29.44 85.42 31.8 91.19 33.64 97.09C34.56 100.03 35.35 103.02 35.69 105.98C35.86 107.45 35.91 108.94 35.59 110.22C35.43 110.85 35.18 111.41 34.82 111.82C34.35 112.34 33.79 112.91 33.25 113.44C31.08 115.6 28.71 117.64 26.37 119.69C24.03 121.75 21.64 123.78 19.35 125.93C17.06 128.08 14.79 130.27 12.75 132.69C11.74 133.91 10.79 135.18 9.98 136.55C9.17 137.91 8.52 139.4 8.28 140.98L8.50999 141.02C9.34999 138.03 11.41 135.6 13.54 133.39C15.68 131.16 18.03 129.12 20.42 127.13C25.21 123.15 30.21 119.42 34.87 115.09C35.45 114.53 36 113.99 36.58 113.36C37.26 112.59 37.65 111.68 37.88 110.8C38.32 109.03 38.24 107.35 38.09 105.72C37.7 102.47 36.81 99.41 35.83 96.39C33.81 90.39 31.29 84.64 28.7 78.93L24.79 70.4C23.51 67.56 22.15 64.72 21.13 61.86C21.01 61.51 20.9 61.15 20.82 60.81C20.8 60.73 20.79 60.66 20.77 60.59L21.19 60.66L22.34 60.85L26.96 61.65C30.04 62.18 33.13 62.69 36.23 63.16C39.33 63.61 42.43 64.03 45.56 64.33C47.12 64.48 48.69 64.6 50.27 64.64C51.06 64.66 51.85 64.66 52.65 64.6C53.05 64.57 53.45 64.53 53.85 64.46C54.25 64.38 54.66 64.29 55.08 64.03C55.28 63.91 55.51 63.68 55.58 63.37C55.64 63.03 55.54 62.85 55.5 62.65C55.38 62.22 55.23 61.85 55.08 61.48ZM20.3 60.51C20.29 60.51 20.28 60.51 20.27 60.51C20.25 60.5 20.28 60.51 20.3 60.51Z" fill="#919191"/>
<path d="M89.65 64.29C89.27 63.87 88.81 63.68 88.37 63.5C87.49 63.22 86.64 63.15 85.8 63.12C82.47 63.08 79.27 63.59 76.05 63.85C74.44 63.99 72.84 64.1 71.24 64.09C70.44 64.08 69.64 64.05 68.86 63.95C68.07 63.85 67.31 63.72 66.6 63.41C65.17 62.82 63.92 61.78 62.87 60.6C61.81 59.41 60.91 58.07 60.12 56.68C58.55 53.88 57.33 50.86 56.42 47.77L56.2 47.83C57.04 50.97 58.19 54.03 59.72 56.91C60.5 58.34 61.37 59.73 62.44 60.99C63.51 62.24 64.78 63.37 66.34 64.06C67.11 64.42 67.96 64.58 68.77 64.7C69.59 64.82 70.41 64.87 71.23 64.9C72.87 64.95 74.5 64.87 76.12 64.77C79.36 64.58 82.6 64.16 85.75 64.27C86.53 64.31 87.31 64.4 87.97 64.63C88.28 64.76 88.58 64.91 88.74 65.11C88.9 65.31 88.98 65.53 88.98 65.82C88.97 65.97 88.96 66.13 88.91 66.28C88.85 66.43 88.82 66.57 88.74 66.73C88.56 67.05 88.4 67.38 88.17 67.7C87.75 68.35 87.26 68.98 86.76 69.6C84.75 72.09 82.55 74.47 80.39 76.88C76.05 81.69 71.71 86.53 67.73 91.69C65.73 94.27 63.82 96.93 62.11 99.74C61.68 100.44 61.26 101.15 60.87 101.88C60.46 102.6 60.1 103.35 59.73 104.09C59.35 104.83 59.06 105.62 58.73 106.39C58.46 107.19 58.14 107.97 57.94 108.81C57.46 110.44 57.26 112.21 57.35 113.99C57.4 114.44 57.44 114.89 57.51 115.33L57.87 116.66C58.14 117.49 58.42 118.2 58.71 118.98C59.88 122.01 61.07 125.02 62.2 128.03C63.35 131.04 64.42 134.07 65.35 137.13C66.27 140.2 67 143.31 67.54 146.45C68.03 149.6 68.22 152.8 68.1 155.99C67.98 159.19 67.37 162.35 66.55 165.48L66.77 165.55C67.93 162.51 68.74 159.33 69.14 156.07C69.46 152.81 69.45 149.51 69.12 146.23C68.77 142.96 68.1 139.74 67.29 136.56C66.43 133.4 65.42 130.29 64.34 127.22C63.23 124.16 62.06 121.14 60.92 118.11C60.66 117.36 60.32 116.58 60.09 115.87L59.8 114.86C59.75 114.51 59.71 114.15 59.67 113.79C59.59 112.35 59.71 110.84 60.13 109.36C60.29 108.61 60.57 107.88 60.8 107.15C61.1 106.43 61.34 105.69 61.69 104.98C62.02 104.27 62.34 103.55 62.72 102.85C63.08 102.14 63.46 101.45 63.87 100.76C65.46 98 67.28 95.35 69.19 92.77C73.03 87.61 77.25 82.72 81.51 77.84C83.63 75.39 85.78 72.97 87.8 70.39C88.3 69.74 88.8 69.09 89.25 68.37C89.49 68.03 89.69 67.63 89.89 67.24C89.99 67.03 90.06 66.78 90.13 66.55C90.19 66.31 90.21 66.06 90.22 65.81C90.23 65.28 90.03 64.7 89.65 64.29Z" fill="#919191"/>
<path d="M522.55 355.63C522.55 355.63 522.32 349.63 519.78 345.47C517.24 341.31 508.01 338.31 503.16 340.39C498.31 342.47 496 343.85 496 343.85C496 343.85 503.16 345.93 509.62 350.31C516.08 354.7 522.55 355.63 522.55 355.63Z" fill="#FF902C" stroke="#263238" stroke-miterlimit="10" stroke-linecap="round" stroke-linejoin="round"/>
<path d="M532.24 358.63C532.24 358.63 526.7 353.32 525.78 345.93C524.86 338.54 532.71 327 532.71 327C532.71 327 536.63 334.16 538.94 342.47C541.25 350.78 532.24 358.63 532.24 358.63Z" fill="#FF902C" stroke="#263238" stroke-miterlimit="10" stroke-linecap="round" stroke-linejoin="round"/>
<path d="M542.86 356.32C542.86 356.32 541.47 349.4 544.01 344.55C546.55 339.7 553.24 340.16 559.94 342.24C566.63 344.32 568.71 344.32 568.71 344.32C568.71 344.32 560.86 349.63 554.17 352.4C547.48 355.17 542.86 356.32 542.86 356.32Z" fill="#FF902C" stroke="#263238" stroke-miterlimit="10" stroke-linecap="round" stroke-linejoin="round"/>
<path d="M532.31 381.19C531.98 381.19 531.71 380.92 531.71 380.59V347.58C531.71 347.25 531.98 346.98 532.31 346.98C532.64 346.98 532.91 347.25 532.91 347.58V380.59C532.9 380.93 532.64 381.19 532.31 381.19Z" fill="#4C5254"/>
<path d="M535.08 381.19C535.05 381.19 535.03 381.19 535 381.18C534.67 381.14 534.44 380.83 534.49 380.51C534.6 379.68 537.39 360.13 546.87 349.27C547.09 349.02 547.46 349 547.71 349.21C547.96 349.43 547.98 349.8 547.77 350.05C538.53 360.64 535.71 380.47 535.68 380.67C535.63 380.98 535.37 381.19 535.08 381.19Z" fill="#565C5E"/>
<path d="M529.54 380.73C529.53 380.73 529.53 380.73 529.54 380.73C529.2 380.73 528.94 380.46 528.94 380.13C528.94 379.94 529.03 361.15 517.85 352.21C517.59 352 517.55 351.63 517.76 351.37C517.97 351.11 518.34 351.07 518.6 351.28C530.24 360.59 530.15 379.35 530.14 380.15C530.13 380.47 529.86 380.73 529.54 380.73Z" fill="#68686D"/>
<path d="M538.77 380.5C538.72 380.5 538.67 380.49 538.62 380.48C538.3 380.39 538.11 380.07 538.2 379.75C538.27 379.5 539.89 373.58 543.6 368.47C543.79 368.2 544.17 368.14 544.43 368.34C544.7 368.53 544.76 368.91 544.56 369.17C540.97 374.1 539.36 380 539.34 380.05C539.27 380.33 539.03 380.5 538.77 380.5Z" fill="#606060"/>
<path d="M542.4 371.32C542.4 371.32 542.17 364.86 544.94 363.93C547.71 363 550.25 365.31 552.33 366.7C554.41 368.08 556.72 369.47 556.72 373.62C556.72 377.77 555.1 385.39 555.1 385.39C555.1 385.39 552.79 378.23 548.87 375C544.94 371.79 542.4 371.32 542.4 371.32Z" fill="#FF902C" stroke="#263238" stroke-miterlimit="10" stroke-linecap="round" stroke-linejoin="round"/>
<path d="M525.38 380.73C525.13 380.73 524.89 380.57 524.81 380.32C524.79 380.26 522.96 374.68 518.78 371.37C518.52 371.17 518.48 370.79 518.68 370.53C518.89 370.27 519.26 370.23 519.52 370.43C524 373.96 525.87 379.71 525.95 379.95C526.05 380.26 525.88 380.6 525.56 380.7C525.5 380.72 525.44 380.73 525.38 380.73Z" fill="#646768"/>
<path d="M522.55 373.4C522.55 373.4 523.47 369.24 521.16 366.24C518.85 363.24 513.31 363.93 510.54 367.16C507.77 370.39 503.85 380.09 503.85 380.09C503.85 380.09 509.39 375.7 515.85 375.7C522.32 375.71 522.55 373.4 522.55 373.4Z" fill="#FF902C" stroke="#263238" stroke-miterlimit="10" stroke-linecap="round" stroke-linejoin="round"/>
<path d="M540.94 416.12H522.52L513.31 385.65H550.16L540.94 416.12Z" fill="white" stroke="#263238" stroke-miterlimit="10" stroke-linecap="round" stroke-linejoin="round"/>
<path d="M550.25 380.6H513.2V385.65H550.25V380.6Z" fill="white" stroke="#263238" stroke-miterlimit="10" stroke-linecap="round" stroke-linejoin="round"/>
<path d="M370.9 359H362.24V364.01H370.9V359Z" fill="white" stroke="#263238" stroke-miterlimit="10" stroke-linecap="round" stroke-linejoin="round"/>
<path d="M382.94 414.17H350.21L357.96 362.65H375.19L382.94 414.17Z" fill="#858585" stroke="#263238" stroke-miterlimit="10" stroke-linecap="round" stroke-linejoin="round"/>
<path d="M356.91 371.16L372.75 362.72" stroke="#263238" stroke-miterlimit="10" stroke-linecap="round" stroke-linejoin="round"/>
<path d="M356.91 375.46L372.75 367.03" stroke="#263238" stroke-miterlimit="10" stroke-linecap="round" stroke-linejoin="round"/>
<path d="M376.2 371.5L360.18 380.46" stroke="#263238" stroke-miterlimit="10" stroke-linecap="round" stroke-linejoin="round"/>
<path d="M359.67 385.97L365.18 383.21" stroke="#263238" stroke-miterlimit="10" stroke-linecap="round" stroke-linejoin="round"/>
<path d="M379.3 391.65L356.22 403.71" stroke="#263238" stroke-miterlimit="10" stroke-linecap="round" stroke-linejoin="round"/>
<path d="M358.63 408.36L377.06 398.71" stroke="#263238" stroke-miterlimit="10" stroke-linecap="round" stroke-linejoin="round"/>
<path d="M356.57 409.22L352.09 411.8" stroke="#263238" stroke-miterlimit="10" stroke-linecap="round" stroke-linejoin="round"/>
<path d="M381.02 405.43L369.14 411.63" stroke="#263238" stroke-miterlimit="10" stroke-linecap="round" stroke-linejoin="round"/>
<path d="M347.69 359H339.03V364.01H347.69V359Z" fill="white" stroke="#263238" stroke-miterlimit="10" stroke-linecap="round" stroke-linejoin="round"/>
<path d="M359.72 414.17H327L334.74 362.65H351.98L359.72 414.17Z" fill="white" stroke="#263238" stroke-miterlimit="10" stroke-linecap="round" stroke-linejoin="round"/>
<path d="M333.7 371.16L349.54 362.72" stroke="#263238" stroke-miterlimit="10" stroke-linecap="round" stroke-linejoin="round"/>
<path d="M333.7 375.46L349.54 367.03" stroke="#263238" stroke-miterlimit="10" stroke-linecap="round" stroke-linejoin="round"/>
<path d="M352.98 371.5L336.97 380.46" stroke="#263238" stroke-miterlimit="10" stroke-linecap="round" stroke-linejoin="round"/>
<path d="M336.45 385.97L341.96 383.21" stroke="#263238" stroke-miterlimit="10" stroke-linecap="round" stroke-linejoin="round"/>
<path d="M356.08 391.65L333.01 403.71" stroke="#263238" stroke-miterlimit="10" stroke-linecap="round" stroke-linejoin="round"/>
<path d="M335.42 408.36L353.84 398.71" stroke="#263238" stroke-miterlimit="10" stroke-linecap="round" stroke-linejoin="round"/>
<path d="M333.35 409.22L328.87 411.8" stroke="#263238" stroke-miterlimit="10" stroke-linecap="round" stroke-linejoin="round"/>
<path d="M357.8 405.43L345.92 411.63" stroke="#263238" stroke-miterlimit="10" stroke-linecap="round" stroke-linejoin="round"/>
<path d="M177.231 227.511C177.231 227.511 137.561 235.181 126.901 237.841C116.231 240.511 112.231 248.511 108.571 257.511C104.901 266.511 78.9007 323.511 77.5707 326.841C76.2407 330.171 84.5707 332.171 94.9007 335.841C105.231 339.511 111.231 343.511 114.231 339.511C117.231 335.511 124.901 320.181 124.901 320.181L121.571 403.851H244.571L239.241 316.521C239.241 316.521 243.911 248.521 243.571 245.851C243.241 243.181 202.571 227.181 198.241 226.851C193.901 226.511 177.231 227.511 177.231 227.511Z" fill="#FF823C"/>
<g opacity="0.4">
<path opacity="0.4" d="M123.251 361.481L123.051 366.601C151.201 371.121 193.111 374.601 242.411 368.451L242.101 363.451C194.661 369.411 153.591 366.401 123.251 361.481Z" fill="white"/>
<path opacity="0.4" d="M229.121 282.141C226.791 284.201 205.461 302.491 180.751 304.111C154.581 305.831 131.871 292.511 131.721 292.431L101.781 272.971C101.121 274.451 100.421 276.001 99.7107 277.591L129.081 296.681C130.061 297.261 153.321 310.921 181.081 309.111C208.931 307.281 231.761 286.521 232.711 285.641C232.861 285.501 232.991 285.351 233.101 285.181C233.181 285.061 236.611 279.941 242.031 274.221C242.191 271.641 242.351 269.121 242.501 266.701C235.181 273.441 230.171 280.581 229.121 282.141Z" fill="white"/>
<path opacity="0.4" d="M87.0807 305.621C86.3707 307.191 85.6807 308.711 85.0207 310.181L121.751 326.321C122.671 324.551 123.481 322.981 124.041 321.871L87.0807 305.621Z" fill="white"/>
<path opacity="0.4" d="M109.131 256.151C122.211 262.871 159.401 281.551 171.281 282.701C183.111 283.851 223.011 256.161 240.461 243.571C239.111 242.831 237.381 241.981 235.391 241.061C211.841 257.901 179.941 278.511 171.761 277.731C161.961 276.781 130.011 261.321 111.191 251.601C110.461 253.061 109.781 254.581 109.131 256.151Z" fill="white"/>
<path opacity="0.4" d="M125.161 327.791C126.861 328.311 167.171 340.431 198.201 336.831C224.761 333.751 236.321 324.791 239.551 321.751L239.231 316.511C239.231 316.511 239.351 314.751 239.551 311.781C237.491 314.541 236.661 316.721 236.341 317.901C234.291 319.881 223.711 328.841 197.621 331.861C168.511 335.231 129.381 323.831 126.751 323.051L124.821 322.201L124.611 327.571L124.891 327.691C124.971 327.731 125.071 327.761 125.161 327.791Z" fill="white"/>
<path opacity="0.4" d="M159.021 293.861C180.621 297.531 206.841 284.991 223.251 270.931C229.141 265.881 236.421 260.361 243.171 255.451C243.311 252.871 243.431 250.691 243.501 249.051C235.811 254.561 226.961 261.171 220.001 267.141C204.481 280.451 179.861 292.351 159.861 288.941C143.591 286.171 117.011 268.011 107.121 260.931C106.541 262.261 105.851 263.841 105.061 265.621C115.821 273.291 142.011 290.971 159.021 293.861Z" fill="white"/>
<path opacity="0.4" d="M243.681 389.281L243.381 384.291C217.791 385.611 166.901 387.391 122.371 383.761L122.171 388.751C141.921 390.351 162.871 390.901 182.341 390.901C207.041 390.901 229.321 390.021 243.681 389.281Z" fill="white"/>
<path opacity="0.4" d="M141.191 352.481C171.551 356.871 227.911 352.541 241.371 351.401L240.471 336.601C240.101 337.361 239.911 337.841 239.881 337.941C239.721 338.371 239.681 338.831 239.761 339.271L241.061 346.411C228.021 347.501 171.431 351.811 141.921 347.531C136.061 346.681 129.991 345.641 123.951 344.501L123.751 349.551C129.601 350.651 135.491 351.651 141.191 352.481Z" fill="white"/>
<path opacity="0.4" d="M126.001 311.021C127.961 312.201 156.081 328.781 186.131 325.191C216.611 321.551 236.861 301.611 237.711 300.761C237.951 300.521 238.101 300.321 238.231 300.011C238.241 299.991 238.741 299.031 240.541 297.291C240.691 295.061 240.841 292.731 241.001 290.331C236.331 293.891 234.551 296.341 233.911 297.481C231.451 299.811 212.441 317.011 185.551 320.221C156.811 323.661 128.821 306.871 128.541 306.701C128.501 306.671 128.451 306.651 128.411 306.621L94.6707 288.821C93.9907 290.341 93.3007 291.861 92.6107 293.391L126.001 311.021Z" fill="white"/>
</g>
<path d="M124.901 320.171L133.221 280.071" stroke="#263238" stroke-miterlimit="10" stroke-linecap="round" stroke-linejoin="round"/>
<path d="M119.261 241.341C131.251 249.711 166.291 273.731 172.901 273.171C178.981 272.661 206.651 246.721 219.561 234.321C209.741 230.401 200.211 226.991 198.241 226.841C193.911 226.511 177.241 227.511 177.241 227.511C177.241 227.511 137.571 235.181 126.911 237.841C123.851 238.601 121.371 239.811 119.261 241.341Z" fill="white" stroke="#263238" stroke-miterlimit="10" stroke-linecap="round" stroke-linejoin="round"/>
<path d="M177.231 227.511C177.231 227.511 137.561 235.181 126.901 237.841C116.231 240.511 112.231 248.511 108.571 257.511C104.901 266.511 78.9007 323.511 77.5707 326.841C76.2407 330.171 84.5707 332.171 94.9007 335.841C105.231 339.511 111.231 343.511 114.231 339.511C117.231 335.511 124.901 320.181 124.901 320.181L121.571 403.851H244.571L239.241 316.521C239.241 316.521 243.911 248.521 243.571 245.851C243.241 243.181 202.571 227.181 198.241 226.851C193.901 226.511 177.231 227.511 177.231 227.511Z" stroke="#263238" stroke-miterlimit="10" stroke-linecap="round" stroke-linejoin="round"/>
<path d="M207.571 228.841C207.571 228.841 206.571 248.511 202.241 277.511C197.911 306.511 197.911 305.181 197.911 318.511C197.911 331.841 201.241 374.511 201.241 374.511H206.571C206.571 374.511 202.241 329.511 202.571 317.841C202.901 306.171 205.571 282.841 208.571 272.511C211.571 262.181 212.571 231.511 212.571 231.511L207.571 228.841Z" fill="white" stroke="#263238" stroke-miterlimit="10" stroke-linecap="round" stroke-linejoin="round"/>
<path d="M166.291 229.221L159.241 230.841C159.241 230.841 156.241 250.171 157.571 268.841C158.901 287.511 160.901 293.171 160.901 293.171C160.901 293.171 162.571 247.841 163.901 239.501C165.231 231.171 166.291 229.221 166.291 229.221Z" fill="white" stroke="#263238" stroke-miterlimit="10" stroke-linecap="round" stroke-linejoin="round"/>
<path d="M160.901 293.171C160.901 293.171 161.571 314.171 160.231 336.171C158.901 358.171 158.901 377.501 158.901 377.501L164.901 377.831C164.901 377.831 164.231 352.501 164.231 331.161C164.231 309.821 160.901 293.171 160.901 293.171Z" fill="white" stroke="#263238" stroke-miterlimit="10" stroke-linecap="round" stroke-linejoin="round"/>
<path d="M170.231 248.511L171.231 214.841H205.901L205.231 245.511" fill="white"/>
<path d="M170.231 248.511L171.231 214.841H205.901L205.231 245.511" stroke="#263238" stroke-miterlimit="10" stroke-linecap="round" stroke-linejoin="round"/>
<path d="M205.701 224.061L197.271 214.841H171.231L170.501 239.461C172.441 240.221 177.051 241.271 185.071 238.931C195.421 235.911 204.561 225.631 205.691 224.321L205.701 224.061Z" fill="#263238" stroke="#263238" stroke-miterlimit="10" stroke-linecap="round" stroke-linejoin="round"/>
<path d="M154.951 132.671C148.011 139.611 142.191 149.221 141.901 157.671C141.561 167.611 135.731 181.671 132.641 183.041C129.561 184.411 128.531 185.441 128.531 185.441C128.531 185.441 135.041 188.521 137.791 188.181C140.531 187.841 142.931 186.811 142.931 186.811C142.931 186.811 140.871 189.551 139.501 190.921C138.131 192.291 138.131 192.291 138.131 192.291L143.621 193.661C143.621 193.661 139.851 196.061 137.111 196.751C134.371 197.441 132.651 197.441 132.651 197.441C132.651 197.441 133.341 203.611 140.531 205.671C147.731 207.731 153.211 206.701 153.211 206.701L149.101 210.811C149.101 210.811 150.131 211.841 156.981 212.181C163.841 212.521 167.261 210.471 167.261 210.471L209.431 208.761C209.431 208.761 210.461 212.191 215.261 213.901C220.061 215.611 222.461 216.301 222.461 216.301C222.461 216.301 221.771 213.561 221.431 212.191C221.091 210.821 220.401 205.331 220.401 205.331C220.401 205.331 222.801 211.501 234.111 211.841C245.421 212.181 249.191 205.671 249.191 205.671C249.191 205.671 245.081 205.671 242.331 201.901C239.591 198.131 239.251 196.761 239.251 196.761C239.251 196.761 243.711 198.471 247.131 198.131C250.561 197.791 253.301 195.391 253.301 195.391C253.301 195.391 239.931 185.791 239.251 179.281C238.561 172.771 236.851 147.401 232.051 138.831C227.251 130.261 219.021 122.381 197.771 118.601C186.271 116.561 174.211 119.921 164.171 125.511C161.121 127.201 157.931 129.691 154.951 132.671Z" fill="#263238" stroke="#263238" stroke-miterlimit="10" stroke-linecap="round" stroke-linejoin="round"/>
<path d="M209.641 163.931C209.641 163.931 189.211 181.651 157.471 186.561C157.471 186.561 157.551 206.731 168.431 220.201C180.251 234.831 187.511 234.951 190.551 234.721C198.821 234.071 215.681 214.541 216.431 211.131C217.191 207.731 218.321 194.881 218.321 186.561C218.321 178.241 208.501 172.621 209.641 163.931Z" fill="white" stroke="#263238" stroke-miterlimit="10" stroke-linecap="round" stroke-linejoin="round"/>
<path d="M150.981 192.381C150.411 192.381 149.931 191.921 149.921 191.341C149.901 190.751 150.371 190.261 150.961 190.241C192.841 189.081 207.901 165.871 208.051 165.641C208.361 165.141 209.021 164.991 209.521 165.301C210.021 165.611 210.171 166.271 209.861 166.771C209.241 167.771 194.121 191.171 151.021 192.371C151.001 192.381 150.991 192.381 150.981 192.381Z" fill="#263238"/>
<path d="M170.061 198.641C170.061 198.641 173.051 199.391 177.361 198.641" stroke="#263238" stroke-miterlimit="10" stroke-linecap="round" stroke-linejoin="round"/>
<path d="M200.751 198.261C200.751 198.261 205.431 199.201 209.171 198.071" stroke="#263238" stroke-miterlimit="10" stroke-linecap="round" stroke-linejoin="round"/>
<path d="M203.851 198.521C204.685 198.521 205.361 197.174 205.361 195.511C205.361 193.849 204.685 192.501 203.851 192.501C203.017 192.501 202.341 193.849 202.341 195.511C202.341 197.174 203.017 198.521 203.851 198.521Z" fill="#263238"/>
<path d="M219.621 190.851C219.011 189.681 217.581 188.931 215.371 188.621C211.861 188.131 192.831 189.401 192.021 189.451L191.691 189.521C191.501 189.591 191.301 189.691 191.101 189.811V189.711H185.171V189.811C184.961 189.691 184.761 189.591 184.581 189.521L184.251 189.451C183.441 189.401 164.411 188.121 160.901 188.621C158.701 188.931 157.271 189.681 156.651 190.851C156.211 191.681 156.231 192.651 156.691 193.591C156.771 193.761 156.871 194.041 157.001 194.411C158.101 197.511 161.031 205.761 171.351 206.151C171.821 206.171 172.271 206.181 172.701 206.181C183.011 206.181 185.531 201.311 187.071 196.701C187.201 196.301 187.291 195.921 187.371 195.561H188.901C188.971 195.931 189.061 196.301 189.191 196.701C190.731 201.311 193.241 206.181 203.561 206.181C204.001 206.181 204.451 206.171 204.911 206.151C215.231 205.751 218.161 197.511 219.261 194.411C219.391 194.041 219.491 193.761 219.571 193.591C220.051 192.651 220.061 191.681 219.621 190.851ZM187.061 191.961H189.221C189.041 192.361 188.901 192.821 188.821 193.331H187.461C187.391 192.811 187.251 192.361 187.061 191.961ZM184.971 195.991C183.451 200.551 181.401 204.281 171.451 203.911C162.651 203.571 160.181 196.621 159.121 193.651C158.951 193.171 158.821 192.801 158.711 192.591C158.611 192.401 158.531 192.121 158.651 191.891C158.741 191.711 159.201 191.121 161.231 190.831C161.711 190.761 162.551 190.731 163.651 190.731C168.751 190.731 179.301 191.351 183.901 191.661C184.411 191.941 185.961 193.031 184.971 195.991ZM217.581 192.591C217.471 192.811 217.341 193.181 217.171 193.651C216.121 196.621 213.651 203.571 204.841 203.911C194.911 204.281 192.841 200.551 191.321 195.991C190.331 193.021 191.871 191.941 192.381 191.671C197.981 191.301 212.381 190.451 215.061 190.831C217.091 191.121 217.551 191.711 217.641 191.891C217.771 192.121 217.681 192.401 217.581 192.591Z" fill="white" stroke="#263238" stroke-miterlimit="10" stroke-linecap="round" stroke-linejoin="round"/>
<path d="M182.251 209.371C182.251 209.371 185.871 212.181 188.481 211.981C191.091 211.781 193.701 209.971 194.311 208.771" stroke="#263238" stroke-miterlimit="10" stroke-linecap="round" stroke-linejoin="round"/>
<path d="M179.441 214.401C179.441 214.401 180.911 219.231 189.891 218.821C196.251 218.531 197.731 213.801 197.731 213.801" stroke="#263238" stroke-miterlimit="10" stroke-linecap="round" stroke-linejoin="round"/>
<path d="M195.321 186.851C195.321 186.851 201.941 183.261 207.171 183.861C212.391 184.461 214.601 186.271 214.601 186.271" stroke="#263238" stroke-width="2" stroke-miterlimit="10" stroke-linecap="round" stroke-linejoin="round"/>
<path d="M181.101 186.661C181.101 186.661 176.431 184.661 171.201 185.061C165.981 185.461 162.161 187.471 162.161 187.471" stroke="#263238" stroke-width="2" stroke-miterlimit="10" stroke-linecap="round" stroke-linejoin="round"/>
<path d="M172.811 198.521C173.645 198.521 174.321 197.174 174.321 195.511C174.321 193.849 173.645 192.501 172.811 192.501C171.977 192.501 171.301 193.849 171.301 195.511C171.301 197.174 171.977 198.521 172.811 198.521Z" fill="#263238"/>
<path d="M237.901 243.171C237.901 243.171 254.571 248.501 257.901 251.841C261.231 255.171 281.901 304.171 287.901 312.171C293.901 320.171 290.901 323.841 287.901 326.841C284.901 329.841 265.901 337.841 258.571 338.511C251.241 339.181 243.571 340.841 240.241 327.841C236.911 314.841 236.241 296.171 232.911 286.511C229.581 276.841 228.581 275.511 228.581 275.511" fill="#FF823C"/>
<g opacity="0.4">
<path opacity="0.4" d="M249.441 284.771C240.901 289.781 236.921 293.551 235.081 295.811C235.431 297.871 235.761 300.051 236.071 302.301C237.021 301.451 237.581 300.901 237.701 300.771C237.941 300.531 238.091 300.331 238.221 300.021C238.241 299.981 240.321 295.911 251.961 289.081C257.481 285.841 265.091 282.741 271.901 280.281C271.191 278.751 270.481 277.221 269.791 275.721C262.891 278.231 255.191 281.391 249.441 284.771Z" fill="white"/>
<path opacity="0.4" d="M257.601 297.681C245.221 304.171 239.971 310.531 237.751 314.571C238.131 317.191 238.541 319.771 239.011 322.241C239.961 321.401 240.451 320.841 240.531 320.741C240.811 320.411 241.011 319.951 241.091 319.521C241.101 319.441 242.811 311.061 259.911 302.101C266.991 298.391 273.611 296.481 279.051 295.511C278.321 293.991 277.571 292.421 276.821 290.811C271.241 291.941 264.641 293.991 257.601 297.681Z" fill="white"/>
<path opacity="0.4" d="M242.311 333.301C243.321 335.121 244.491 336.381 245.781 337.241C248.031 333.321 253.661 325.511 265.201 320.051C273.101 316.311 281.661 314.151 288.431 312.921C288.261 312.671 288.101 312.431 287.901 312.171C287.271 311.321 286.471 310.021 285.541 308.361C278.811 309.701 270.711 311.901 263.051 315.531C251.591 320.961 245.351 328.501 242.311 333.301Z" fill="white"/>
<path opacity="0.4" d="M230.581 280.081C231.121 281.491 231.801 283.331 232.631 285.711C232.661 285.681 232.701 285.641 232.721 285.631C232.871 285.491 233.001 285.341 233.111 285.171C233.261 284.941 246.481 265.221 262.351 259.881C261.501 258.151 260.741 256.631 260.081 255.381C246.121 260.411 234.711 274.461 230.581 280.081Z" fill="white"/>
<path opacity="0.4" d="M237.091 245.991C238.121 245.251 239.111 244.551 240.031 243.881C238.721 243.441 237.901 243.171 237.901 243.171L237.091 245.991Z" fill="white"/>
<path opacity="0.4" d="M234.251 255.821L231.921 263.891C238.971 258.401 246.591 252.931 252.611 248.731C250.911 247.951 249.011 247.171 247.151 246.451C243.181 249.251 238.721 252.461 234.251 255.821Z" fill="white"/>
</g>
<path d="M237.901 243.171C237.901 243.171 254.571 248.501 257.901 251.841C261.231 255.171 281.901 304.171 287.901 312.171C293.901 320.171 290.901 323.841 287.901 326.841C284.901 329.841 265.901 337.841 258.571 338.511C251.241 339.181 243.571 340.841 240.241 327.841C236.911 314.841 236.241 296.171 232.911 286.511C229.581 276.841 228.581 275.511 228.581 275.511" stroke="#263238" stroke-miterlimit="10"/>
<path d="M289.231 344.841C289.231 344.841 286.231 331.841 283.561 327.171C280.891 322.501 260.891 326.501 253.231 329.501C245.561 332.501 205.901 342.831 193.561 345.831C181.221 348.831 173.231 352.501 168.891 356.831C164.561 361.161 144.561 371.161 145.891 373.161C147.221 375.161 153.561 375.161 157.891 375.161C162.221 375.161 172.891 371.831 173.891 371.161C174.891 370.491 176.221 370.491 176.221 370.491L168.891 376.161C168.891 376.161 169.891 379.161 173.561 376.831C177.231 374.501 183.891 369.831 185.231 368.831C186.561 367.831 192.901 365.501 194.901 363.501C196.901 361.501 198.231 358.171 198.231 358.171C198.231 358.171 243.561 359.501 264.561 356.171C285.561 352.841 288.231 347.171 289.231 344.841Z" fill="white" stroke="#263238" stroke-miterlimit="10" stroke-linecap="round" stroke-linejoin="round"/>
<path d="M153.901 375.171C153.901 375.171 153.901 373.501 157.571 372.171C161.241 370.841 167.571 369.171 174.901 363.171" stroke="#263238" stroke-miterlimit="10" stroke-linecap="round" stroke-linejoin="round"/>
<path d="M176.231 370.511C176.231 370.511 180.901 367.181 183.561 364.841" stroke="#263238" stroke-miterlimit="10" stroke-linecap="round" stroke-linejoin="round"/>
<path d="M149.571 374.511C149.571 374.511 149.241 371.841 153.571 369.841C157.901 367.841 162.241 366.511 170.241 360.171" stroke="#263238" stroke-miterlimit="10" stroke-linecap="round" stroke-linejoin="round"/>
<path d="M112.901 361.511C112.901 361.511 110.571 352.841 107.231 337.841C103.901 322.841 90.9006 321.171 85.2306 322.511C79.5606 323.841 75.9006 328.181 77.5606 337.181C79.2306 346.181 93.2306 372.181 95.2306 374.511C97.2306 376.841 111.231 375.181 114.901 370.841C118.571 366.511 112.901 361.511 112.901 361.511Z" fill="white" stroke="#263238" stroke-miterlimit="10" stroke-linecap="round" stroke-linejoin="round"/>
<path d="M98.9007 372.841C98.9007 372.841 110.571 364.171 114.231 362.511C117.901 360.841 130.901 360.841 135.231 361.841C139.561 362.841 145.231 374.841 145.231 374.841C145.231 374.841 108.231 376.841 102.901 376.841C97.5707 376.841 95.5707 377.841 95.2307 374.511" fill="white"/>
<path d="M98.9007 372.841C98.9007 372.841 110.571 364.171 114.231 362.511C117.901 360.841 130.901 360.841 135.231 361.841C139.561 362.841 145.231 374.841 145.231 374.841C145.231 374.841 108.231 376.841 102.901 376.841C97.5707 376.841 95.5707 377.841 95.2307 374.511" stroke="#263238" stroke-miterlimit="10" stroke-linecap="round" stroke-linejoin="round"/>
<path d="M123.231 376.171C123.231 376.171 114.561 367.171 112.901 365.501" stroke="#263238" stroke-miterlimit="10" stroke-linecap="round" stroke-linejoin="round"/>
<path d="M129.901 375.171L119.901 363.511" stroke="#263238" stroke-miterlimit="10" stroke-linecap="round" stroke-linejoin="round"/>
<path d="M138.231 375.511C138.231 375.511 131.561 365.841 127.901 362.841" stroke="#263238" stroke-miterlimit="10" stroke-linecap="round" stroke-linejoin="round"/>
<path d="M25.5107 298.931H14.8107V315.511H25.5107V298.931Z" fill="#FF902C" stroke="#263238" stroke-miterlimit="10" stroke-linecap="round" stroke-linejoin="round"/>
<path d="M14.6907 303.941L20.9807 299.271" stroke="#263238" stroke-miterlimit="10" stroke-linecap="round" stroke-linejoin="round"/>
<path d="M14.9207 307.901L25.5107 298.931" stroke="#263238" stroke-miterlimit="10" stroke-linecap="round" stroke-linejoin="round"/>
<path d="M16.5507 306.501L20.0507 311.631" stroke="#263238" stroke-miterlimit="10" stroke-linecap="round" stroke-linejoin="round"/>
<path d="M19.5807 304.171L23.5507 310.231" stroke="#263238" stroke-miterlimit="10" stroke-linecap="round" stroke-linejoin="round"/>
<path d="M22.6207 301.611L25.4107 306.741" stroke="#263238" stroke-miterlimit="10" stroke-linecap="round" stroke-linejoin="round"/>
<path d="M15.6207 315.601L25.4107 308.601" stroke="#263238" stroke-miterlimit="10" stroke-linecap="round" stroke-linejoin="round"/>
<path d="M21.2207 315.131L25.1807 312.801" stroke="#263238" stroke-miterlimit="10" stroke-linecap="round" stroke-linejoin="round"/>
<path d="M89.7107 315.041L87.5707 317.491H36.2707L34.1407 315.041H4.28065V337.891H119.561V315.041H89.7107Z" fill="white" stroke="#263238" stroke-miterlimit="10" stroke-linecap="round" stroke-linejoin="round"/>
<path d="M140.991 364.301H108.291L101.281 306.911H148.001L140.991 364.301Z" fill="white" stroke="#263238" stroke-miterlimit="10" stroke-linecap="round" stroke-linejoin="round"/>
<path d="M138.021 306.911L137.531 364.301H140.991L148.001 306.911H138.021Z" fill="white" stroke="#263238" stroke-miterlimit="10" stroke-linecap="round" stroke-linejoin="round"/>
<path d="M86.4207 325.491H38.4107C37.4907 325.491 36.7407 324.741 36.7407 323.821V323.591C36.7407 322.671 37.4907 321.921 38.4107 321.921H86.4207C87.3407 321.921 88.0907 322.671 88.0907 323.591V323.821C88.0907 324.751 87.3407 325.491 86.4207 325.491Z" fill="white" stroke="#263238" stroke-miterlimit="10" stroke-linecap="round" stroke-linejoin="round"/>
<path d="M9.27066 337.891V409.111H182.931V384.531C182.931 380.971 180.041 378.081 176.481 378.081H56.1807C53.5207 378.081 51.3707 375.921 51.3707 373.271V363.681C51.3707 353.311 56.6007 343.651 65.2807 337.971L9.27066 337.891Z" fill="white" stroke="#263238" stroke-miterlimit="10" stroke-linecap="round" stroke-linejoin="round"/>
<path d="M4.28065 337.891V409.111H177.941V378.091H51.1807C48.5207 378.091 46.3707 375.931 46.3707 373.281V363.691C46.3707 353.321 51.6007 343.661 60.2807 337.981L4.28065 337.891Z" fill="white" stroke="#263238" stroke-miterlimit="10" stroke-linecap="round" stroke-linejoin="round"/>
<path d="M19.3607 405.361C25.4137 405.361 30.3207 400.454 30.3207 394.401C30.3207 388.348 25.4137 383.441 19.3607 383.441C13.3076 383.441 8.40067 388.348 8.40067 394.401C8.40067 400.454 13.3076 405.361 19.3607 405.361Z" fill="#858585" stroke="#263238" stroke-miterlimit="10" stroke-linecap="round" stroke-linejoin="round"/>
<path d="M107.101 354.561L108.291 364.301H140.991L142.181 354.561H107.101Z" fill="#858585" stroke="#263238" stroke-miterlimit="10" stroke-linecap="round" stroke-linejoin="round"/>
<path d="M137.611 354.561L137.531 364.301H140.991L142.181 354.561H137.611Z" fill="#666666" stroke="#263238" stroke-miterlimit="10" stroke-linecap="round" stroke-linejoin="round"/>
<path d="M68.0207 417.031C68.0207 417.031 6.21065 418.851 1.67065 417.941C-2.86935 417.031 16.2107 410.671 41.6607 407.491C67.1107 404.311 108.921 417.491 108.921 417.491L68.0207 417.031Z" fill="#FF823C" stroke="#263238" stroke-miterlimit="10" stroke-linecap="round" stroke-linejoin="round"/>
<path d="M141.111 371.931C136.561 372.071 132.011 372.461 127.481 372.971C119.201 373.911 103.251 372.851 97.0007 379.111C97.0007 379.111 87.9107 393.201 84.2707 399.111C80.6307 405.021 77.9107 408.651 74.2707 410.021C70.6307 411.381 55.1807 417.751 55.1807 417.751H184.251C184.251 417.751 203.221 418.411 209.591 410.691C216.451 402.361 204.761 392.851 198.801 388.391C188.941 381.011 178.101 377.831 166.331 374.581C158.051 372.291 149.581 371.671 141.111 371.931Z" fill="#FF823C" stroke="#263238" stroke-miterlimit="10" stroke-linecap="round" stroke-linejoin="round"/>
<path d="M179.341 407.221C179.341 407.221 199.671 403.251 217.521 406.721C235.371 410.191 260.651 407.221 272.551 408.211C284.451 409.201 303.791 411.681 303.791 411.681C303.791 411.681 274.041 416.641 258.671 417.631C243.301 418.621 228.921 419.611 228.921 419.611C228.921 419.611 220.991 420.111 200.161 413.661C179.341 407.221 179.341 407.221 179.341 407.221Z" fill="#FF823C" stroke="#263238" stroke-miterlimit="10" stroke-linecap="round" stroke-linejoin="round"/>
<path d="M136.701 417.631C136.701 417.631 149.101 416.641 164.471 410.691C179.841 404.741 188.761 405.731 200.171 410.191C211.571 414.651 215.541 418.621 228.931 419.611L136.701 417.631Z" fill="#263238" stroke="#263238" stroke-miterlimit="10" stroke-linecap="round" stroke-linejoin="round"/>
</svg>
