<?xml version="1.0" encoding="utf-8"?>
<!-- Generator: Adobe Illustrator 16.0.0, SVG Export Plug-In . SVG Version: 6.00 Build 0)  -->
<!DOCTYPE svg PUBLIC "-//W3C//DTD SVG 1.1//EN" "http://www.w3.org/Graphics/SVG/1.1/DTD/svg11.dtd">
<svg version="1.1" id="Layer_1" xmlns="http://www.w3.org/2000/svg" xmlns:xlink="http://www.w3.org/1999/xlink" x="0px" y="0px"
	 width="547.02px" height="167.67px" viewBox="0 0 547.02 167.67" style="enable-background:new 0 0 547.02 167.67;"
	 xml:space="preserve">
<g>
	<g>
		<rect x="145.22" y="25.92" style="fill:#FF7324;stroke:#FF7324;" width="45.8" height="141.75"/>
		<rect x="196.16" y="34.68" style="fill:#FF7324;stroke:#FF7324;" width="11.9" height="57.75"/>
		<rect x="24.48" y="25.92" style="fill:#FF7324;stroke:#FF7324;" width="27.57" height="77.74"/>
		<rect x="26.02" y="128.12" style="fill:#FF7324;stroke:#FF7324;" width="120.8" height="39.55"/>
		<rect x="52.05" y="25.92" style="fill:#FF7324;stroke:#FF7324;" width="94.77" height="36.79"/>
		<rect x="36.96" y="103.62" style="fill:#FF7324;stroke:#FF7324;" width="4.46" height="17.5"/>
		<rect x="190.91" y="43.78" style="fill:#FF7324;stroke:#FF7324;" width="5.25" height="39.55"/>
		<rect x="164.97" style="fill:#FF7324;stroke:#FF7324;" width="6.3" height="81.3"/>
		<polygon style="fill:#FF7324;stroke:#FF7324;" points="26.83,167.67 0,167.67 26.02,128.12 		"/>
		<polygon style="fill:#FF7324;stroke:#FF7324;" points="71.48,62.7 52.05,103.66 24.48,103.66 16.22,25.92 67.65,25.92 		"/>
		<polygon style="fill:#FF7324;stroke:#FF7324;" points="73.08,62.7 146.82,74.67 146.41,54 		"/>
	</g>
	<g>
		<path style="fill:#263238;" d="M239.96,101.7c-4.53-1.58-8.03-3.67-10.5-6.27l2.76-5.42c2.41,2.41,5.6,4.36,9.59,5.84
			c3.99,1.49,8.11,2.23,12.35,2.23c5.95,0,10.42-1.09,13.39-3.28c2.98-2.19,4.47-5.02,4.47-8.5c0-2.66-0.81-4.78-2.42-6.37
			c-1.62-1.58-3.59-2.8-5.94-3.66c-2.34-0.85-5.61-1.79-9.79-2.8c-5-1.27-8.99-2.48-11.97-3.66c-2.98-1.17-5.53-2.96-7.65-5.37
			c-2.12-2.41-3.18-5.67-3.18-9.79c0-3.36,0.89-6.41,2.66-9.17c1.77-2.75,4.5-4.95,8.17-6.6c3.67-1.65,8.23-2.47,13.68-2.47
			c3.8,0,7.52,0.52,11.16,1.57c3.64,1.04,6.79,2.49,9.45,4.32l-2.38,5.6c-2.79-1.84-5.76-3.21-8.93-4.13
			c-3.17-0.92-6.27-1.38-9.31-1.38c-5.83,0-10.21,1.13-13.16,3.37c-2.95,2.25-4.42,5.15-4.42,8.69c0,2.66,0.81,4.8,2.42,6.41
			c1.62,1.61,3.64,2.85,6.08,3.71c2.44,0.85,5.71,1.79,9.83,2.8c4.88,1.2,8.82,2.39,11.83,3.56c3.01,1.17,5.56,2.95,7.65,5.32
			s3.13,5.59,3.13,9.64c0,3.36-0.9,6.41-2.71,9.17c-1.81,2.75-4.58,4.94-8.31,6.56c-3.74,1.62-8.33,2.42-13.78,2.42
			C249.23,104.07,244.49,103.28,239.96,101.7z"/>
		<path style="fill:#263238;" d="M337.86,53.53v49.97h-6.46v-9.12c-1.77,3.04-4.21,5.4-7.31,7.08c-3.1,1.68-6.65,2.52-10.64,2.52
			c-6.52,0-11.67-1.82-15.44-5.46c-3.77-3.64-5.65-8.98-5.65-16.01V53.53h6.75v28.31c0,5.26,1.3,9.25,3.9,11.97
			c2.6,2.72,6.3,4.08,11.11,4.08c5.26,0,9.41-1.6,12.45-4.8c3.04-3.2,4.56-7.65,4.56-13.35V53.53H337.86z"/>
		<path style="fill:#263238;" d="M400.27,80.61h-41.8c0.38,5.19,2.38,9.39,5.98,12.59c3.61,3.2,8.17,4.8,13.68,4.8
			c3.1,0,5.95-0.55,8.55-1.66c2.6-1.11,4.84-2.74,6.75-4.89l3.8,4.37c-2.22,2.66-4.99,4.69-8.31,6.08
			c-3.33,1.39-6.98,2.09-10.97,2.09c-5.13,0-9.67-1.09-13.63-3.28c-3.96-2.18-7.05-5.21-9.26-9.07c-2.22-3.86-3.33-8.23-3.33-13.11
			c0-4.88,1.06-9.25,3.18-13.11c2.12-3.86,5.04-6.87,8.74-9.02c3.7-2.15,7.87-3.23,12.49-3.23c4.62,0,8.77,1.08,12.45,3.23
			c3.67,2.15,6.55,5.15,8.64,8.98c2.09,3.83,3.13,8.22,3.13,13.16L400.27,80.61z M364.03,63.56c-3.26,3.07-5.12,7.08-5.56,12.02
			h35.43c-0.44-4.94-2.3-8.94-5.56-12.02c-3.26-3.07-7.33-4.61-12.21-4.61C371.33,58.95,367.29,60.48,364.03,63.56z"/>
		<path style="fill:#263238;" d="M414.14,33.01h6.75v70.49h-6.75V33.01z"/>
		<path style="fill:#263238;" d="M439.6,41.18c-0.95-0.95-1.42-2.09-1.42-3.42c0-1.27,0.48-2.38,1.42-3.32
			c0.95-0.95,2.12-1.43,3.52-1.43c1.39,0,2.56,0.46,3.51,1.38c0.95,0.92,1.42,2.01,1.42,3.28c0,1.39-0.47,2.56-1.42,3.52
			c-0.95,0.95-2.12,1.42-3.51,1.42C441.72,42.61,440.55,42.13,439.6,41.18z M439.7,53.53h6.75v49.97h-6.75V53.53z"/>
		<path style="fill:#263238;" d="M508.76,80.61h-41.8c0.38,5.19,2.38,9.39,5.98,12.59c3.61,3.2,8.17,4.8,13.68,4.8
			c3.1,0,5.95-0.55,8.55-1.66c2.6-1.11,4.84-2.74,6.75-4.89l3.8,4.37c-2.22,2.66-4.99,4.69-8.31,6.08
			c-3.33,1.39-6.98,2.09-10.97,2.09c-5.13,0-9.67-1.09-13.63-3.28c-3.96-2.18-7.05-5.21-9.26-9.07c-2.22-3.86-3.33-8.23-3.33-13.11
			c0-4.88,1.06-9.25,3.18-13.11c2.12-3.86,5.04-6.87,8.74-9.02c3.7-2.15,7.87-3.23,12.49-3.23c4.62,0,8.77,1.08,12.45,3.23
			c3.67,2.15,6.55,5.15,8.64,8.98c2.09,3.83,3.13,8.22,3.13,13.16L508.76,80.61z M472.52,63.56c-3.26,3.07-5.12,7.08-5.56,12.02
			h35.43c-0.44-4.94-2.3-8.94-5.56-12.02c-3.26-3.07-7.33-4.61-12.21-4.61C479.82,58.95,475.78,60.48,472.52,63.56z"/>
		<path style="fill:#263238;" d="M536.17,55.72c3.13-1.71,7.01-2.56,11.64-2.56v6.56l-1.62-0.1c-5.26,0-9.37,1.62-12.35,4.85
			c-2.98,3.23-4.46,7.76-4.46,13.58v25.46h-6.75V53.53h6.46v9.79C530.67,59.96,533.03,57.43,536.17,55.72z"/>
		<path style="fill:#263238;" d="M245.72,133.3l-1.04,8.4h5.68v2.2h-5.96l-0.92,7.6h-2.16l0.92-7.6h-8.2l-0.96,7.6h-2.16l0.92-7.6
			h-5.68v-2.2h5.96l1.04-8.4h-5.72v-2.2h6l0.92-7.6h2.2l-0.96,7.6h8.24l0.92-7.6h2.16l-0.92,7.6h5.64v2.2H245.72z M243.56,133.3
			h-8.2l-1.08,8.4h8.24L243.56,133.3z"/>
		<path style="fill:#263238;" d="M259.94,150.34c-1.64-0.91-2.93-2.18-3.86-3.82c-0.93-1.64-1.4-3.49-1.4-5.54
			c0-2.05,0.47-3.89,1.4-5.52c0.93-1.63,2.22-2.89,3.86-3.8c1.64-0.91,3.5-1.36,5.58-1.36c1.81,0,3.43,0.35,4.86,1.06
			c1.43,0.71,2.55,1.74,3.38,3.1l-2.12,1.44c-0.69-1.04-1.57-1.82-2.64-2.34c-1.07-0.52-2.23-0.78-3.48-0.78
			c-1.52,0-2.89,0.34-4.1,1.02c-1.21,0.68-2.16,1.65-2.84,2.9c-0.68,1.25-1.02,2.68-1.02,4.28c0,1.63,0.34,3.06,1.02,4.3
			c0.68,1.24,1.63,2.2,2.84,2.88c1.21,0.68,2.58,1.02,4.1,1.02c1.25,0,2.41-0.25,3.48-0.76c1.07-0.51,1.95-1.28,2.64-2.32l2.12,1.44
			c-0.83,1.36-1.96,2.39-3.4,3.1c-1.44,0.71-3.05,1.06-4.84,1.06C263.44,151.7,261.58,151.25,259.94,150.34z"/>
		<path style="fill:#263238;" d="M282.08,150.32c-1.63-0.92-2.91-2.19-3.84-3.82c-0.93-1.63-1.4-3.47-1.4-5.52
			c0-2.05,0.47-3.89,1.4-5.52c0.93-1.63,2.21-2.89,3.84-3.8c1.63-0.91,3.45-1.36,5.48-1.36s3.85,0.45,5.48,1.36
			c1.63,0.91,2.9,2.17,3.82,3.8s1.38,3.47,1.38,5.52c0,2.05-0.46,3.89-1.38,5.52c-0.92,1.63-2.19,2.9-3.82,3.82
			c-1.63,0.92-3.45,1.38-5.48,1.38S283.71,151.24,282.08,150.32z M291.58,148.16c1.19-0.68,2.11-1.65,2.78-2.9
			c0.67-1.25,1-2.68,1-4.28s-0.33-3.03-1-4.28c-0.67-1.25-1.59-2.22-2.78-2.9s-2.53-1.02-4.02-1.02s-2.83,0.34-4.02,1.02
			s-2.12,1.65-2.8,2.9c-0.68,1.25-1.02,2.68-1.02,4.28s0.34,3.03,1.02,4.28c0.68,1.25,1.61,2.22,2.8,2.9s2.53,1.02,4.02,1.02
			S290.39,148.84,291.58,148.16z"/>
		<path style="fill:#263238;" d="M304.78,150.96c-1.56-0.49-2.78-1.11-3.66-1.86l1.28-2.24c0.88,0.69,1.99,1.26,3.32,1.7
			s2.72,0.66,4.16,0.66c1.92,0,3.34-0.3,4.26-0.9c0.92-0.6,1.38-1.45,1.38-2.54c0-0.77-0.25-1.38-0.76-1.82
			c-0.51-0.44-1.15-0.77-1.92-1s-1.8-0.45-3.08-0.66c-1.71-0.32-3.08-0.65-4.12-0.98c-1.04-0.33-1.93-0.9-2.66-1.7
			c-0.73-0.8-1.1-1.91-1.1-3.32c0-1.76,0.73-3.2,2.2-4.32c1.47-1.12,3.51-1.68,6.12-1.68c1.36,0,2.72,0.18,4.08,0.54
			c1.36,0.36,2.48,0.83,3.36,1.42l-1.24,2.28c-1.73-1.2-3.8-1.8-6.2-1.8c-1.81,0-3.18,0.32-4.1,0.96c-0.92,0.64-1.38,1.48-1.38,2.52
			c0,0.8,0.26,1.44,0.78,1.92c0.52,0.48,1.17,0.83,1.94,1.06c0.77,0.23,1.84,0.46,3.2,0.7c1.68,0.32,3.03,0.64,4.04,0.96
			c1.01,0.32,1.88,0.87,2.6,1.64c0.72,0.77,1.08,1.84,1.08,3.2c0,1.84-0.77,3.3-2.3,4.38c-1.53,1.08-3.66,1.62-6.38,1.62
			C307.97,151.7,306.34,151.46,304.78,150.96z"/>
		<path style="fill:#263238;" d="M334.68,150.22c-0.53,0.48-1.19,0.85-1.98,1.1c-0.79,0.25-1.61,0.38-2.46,0.38
			c-1.97,0-3.49-0.53-4.56-1.6c-1.07-1.07-1.6-2.57-1.6-4.52v-12.72h-3.76v-2.4h3.76v-4.6h2.84v4.6h6.4v2.4h-6.4v12.56
			c0,1.25,0.31,2.21,0.94,2.86s1.53,0.98,2.7,0.98c0.59,0,1.15-0.09,1.7-0.28c0.55-0.19,1.02-0.45,1.42-0.8L334.68,150.22z"/>
		<path style="fill:#263238;" d="M358.8,130.46v21.04h-2.72v-3.84c-0.75,1.28-1.77,2.27-3.08,2.98c-1.31,0.71-2.8,1.06-4.48,1.06
			c-2.75,0-4.91-0.77-6.5-2.3s-2.38-3.78-2.38-6.74v-12.2h2.84v11.92c0,2.21,0.55,3.89,1.64,5.04c1.09,1.15,2.65,1.72,4.68,1.72
			c2.21,0,3.96-0.67,5.24-2.02c1.28-1.35,1.92-3.22,1.92-5.62v-11.04H358.8z"/>
		<path style="fill:#263238;" d="M372.46,131.38c1.32-0.72,2.95-1.08,4.9-1.08v2.76l-0.68-0.04c-2.21,0-3.95,0.68-5.2,2.04
			s-1.88,3.27-1.88,5.72v10.72h-2.84v-21.04h2.72v4.12C370.15,133.17,371.14,132.1,372.46,131.38z"/>
		<path style="fill:#263238;" d="M396.12,132.36c1.47,1.37,2.2,3.41,2.2,6.1v13.04h-2.72v-3.28c-0.64,1.09-1.58,1.95-2.82,2.56
			c-1.24,0.61-2.71,0.92-4.42,0.92c-2.35,0-4.21-0.56-5.6-1.68c-1.39-1.12-2.08-2.6-2.08-4.44c0-1.79,0.65-3.23,1.94-4.32
			c1.29-1.09,3.35-1.64,6.18-1.64h6.68v-1.28c0-1.81-0.51-3.19-1.52-4.14c-1.01-0.95-2.49-1.42-4.44-1.42
			c-1.33,0-2.61,0.22-3.84,0.66c-1.23,0.44-2.28,1.05-3.16,1.82l-1.28-2.12c1.07-0.91,2.35-1.61,3.84-2.1
			c1.49-0.49,3.07-0.74,4.72-0.74C392.54,130.3,394.65,130.99,396.12,132.36z M392.92,148.36c1.15-0.73,2-1.79,2.56-3.18v-3.44h-6.6
			c-3.6,0-5.4,1.25-5.4,3.76c0,1.23,0.47,2.19,1.4,2.9c0.93,0.71,2.24,1.06,3.92,1.06C390.4,149.46,391.77,149.1,392.92,148.36z"/>
	</g>
</g>
</svg>
